<?xml version="1.0" encoding="utf-8"?>
<svg width="7px" height="10px" viewBox="0 0 7 10" xmlns="http://www.w3.org/2000/svg">
  <title>icon-arrow</title>
  <desc>Created with Sketch.</desc>
  <g id="Symbols" stroke="none" stroke-width="1" fill="none" fill-rule="evenodd">
    <g id="icon-arrow" fill="#00A45B">
      <g id="Group" transform="matrix(-1, 0, 0, -1, 7.484759, 9.997979)">
        <rect id="Rectangle" x="3" y="1" width="1.5" height="9" rx="0.75" style="fill: rgb(247, 85, 53);"/>
        <path d="M3.74128499,1.8106659 L5.33716597,3.40654688 C5.62343963,3.69282054 6.1000422,3.69454938 6.39293542,3.40165616 C6.68787064,3.10672094 6.68801829,2.63607885 6.39782614,2.3458867 L4.26672436,0.214784921 C4.12438423,0.0724447886 3.93499008,0.000451179111 3.74452032,4.28299725e-05 C3.54905456,-0.00202062989 3.36014185,0.0704886954 3.21584563,0.214784921 L1.08474384,2.3458867 C0.798470183,2.63216036 0.796741344,3.10876294 1.08963456,3.40165616 C1.38456978,3.69659137 1.85521187,3.69673903 2.14540401,3.40654688 L3.74128499,1.8106659 Z" id="Combined-Shape" style="fill: rgb(247, 85, 53);"/>
      </g>
    </g>
  </g>
</svg>