<?xml version="1.0" encoding="utf-8"?>
<!-- Generator: Adobe Illustrator 22.0.1, SVG Export Plug-In . SVG Version: 6.00 Build 0)  -->
<svg width="359px" height="503px" viewBox="0 0 359 503" version="1.1" xmlns="http://www.w3.org/2000/svg" xmlns:xlink="http://www.w3.org/1999/xlink">
    <style type="text/css">
        .st0{fill:#61819C;}
        .st1{fill:#0B3E69;}
        .st2{fill:#0F2D42;}
        .st3{filter:url(#Adobe_OpacityMaskFilter);}
        .st4{fill:#FFFFFF;}
        .st5{mask:url(#mask-2_1_);fill:#0082D7;}
        .st6{filter:url(#Adobe_OpacityMaskFilter_1_);}
        .st7{mask:url(#mask-4_1_);fill:#FFFFFF;}
    </style>
    <title>E1286693-710A-48B7-BF1F-8B984FF6D335</title>
    <desc>Created with sketchtool.</desc>
    <g id="Symbols">
        <g id="cover-image-mobile">
            <g>
                <g id="Group-186" transform="translate(47.000000, 170.500000)">
                    <path id="Fill-2" class="st0" d="M21.3,7.3c-0.4,0-0.8-0.3-0.8-0.8V1c0-0.4,0.3-0.8,0.8-0.8S22,0.6,22,1v5.5
					C22,6.9,21.7,7.3,21.3,7.3" />
                    <path id="Fill-4" class="st0" d="M27.8,7.3c-0.4,0-0.8-0.3-0.8-0.8V1c0-0.4,0.3-0.8,0.8-0.8s0.8,0.3,0.8,0.8v5.5
					C28.5,6.9,28.2,7.3,27.8,7.3" />
                    <path id="Fill-6" class="st0" d="M34.8,7.3c-0.4,0-0.8-0.3-0.8-0.8V1c0-0.4,0.3-0.8,0.8-0.8s0.8,0.3,0.8,0.8v5.5
					C35.5,6.9,35.2,7.3,34.8,7.3" />
                    <path id="Fill-8" class="st0" d="M41.3,7.3c-0.4,0-0.8-0.3-0.8-0.8V1c0-0.4,0.3-0.8,0.8-0.8S42,0.6,42,1v5.5
					C42,6.9,41.7,7.3,41.3,7.3" />
                    <path id="Fill-10" class="st0" d="M48.3,7.3c-0.4,0-0.8-0.3-0.8-0.8V1c0-0.4,0.3-0.8,0.8-0.8S49,0.6,49,1v5.5
					C49,6.9,48.7,7.3,48.3,7.3" />
                    <path id="Fill-12" class="st0" d="M54.8,7.3c-0.4,0-0.8-0.3-0.8-0.8V1c0-0.4,0.3-0.8,0.8-0.8s0.8,0.3,0.8,0.8v5.5
					C55.5,6.9,55.2,7.3,54.8,7.3" />
                    <path id="Fill-14" class="st0" d="M61.8,7.3c-0.4,0-0.8-0.3-0.8-0.8V1c0-0.4,0.3-0.8,0.8-0.8s0.8,0.3,0.8,0.8v5.5
					C62.5,6.9,62.2,7.3,61.8,7.3" />
                    <path id="Fill-16" class="st0" d="M67.8,7.3c-0.4,0-0.8-0.3-0.8-0.8V1c0-0.4,0.3-0.8,0.8-0.8s0.8,0.3,0.8,0.8v5.5
					C68.5,6.9,68.2,7.3,67.8,7.3" />
                    <path id="Fill-18" class="st0" d="M74.8,7.3c-0.4,0-0.8-0.3-0.8-0.8V1c0-0.4,0.3-0.8,0.8-0.8s0.8,0.3,0.8,0.8v5.5
					C75.5,6.9,75.2,7.3,74.8,7.3" />
                    <path id="Fill-20" class="st0" d="M81.8,7.3c-0.4,0-0.8-0.3-0.8-0.8V1c0-0.4,0.3-0.8,0.8-0.8s0.8,0.3,0.8,0.8v5.5
					C82.5,6.9,82.2,7.3,81.8,7.3" />
                    <path id="Fill-22" class="st0" d="M88.3,7.3c-0.4,0-0.8-0.3-0.8-0.8V1c0-0.4,0.3-0.8,0.8-0.8S89,0.6,89,1v5.5
					C89,6.9,88.7,7.3,88.3,7.3" />
                    <path id="Fill-24" class="st0" d="M94.8,7.3c-0.4,0-0.8-0.3-0.8-0.8V1c0-0.4,0.3-0.8,0.8-0.8s0.8,0.3,0.8,0.8v5.5
					C95.5,6.9,95.2,7.3,94.8,7.3" />
                    <path id="Fill-26" class="st0" d="M101.8,7.3c-0.4,0-0.8-0.3-0.8-0.8V1c0-0.4,0.3-0.8,0.8-0.8s0.8,0.3,0.8,0.8v5.5
					C102.5,6.9,102.2,7.3,101.8,7.3" />
                    <path id="Fill-28" class="st0" d="M108.3,7.3c-0.4,0-0.8-0.3-0.8-0.8V1c0-0.4,0.3-0.8,0.8-0.8S109,0.6,109,1v5.5
					C109,6.9,108.7,7.3,108.3,7.3" />
                    <path id="Fill-30" class="st0" d="M115.3,7.3c-0.4,0-0.8-0.3-0.8-0.8V1c0-0.4,0.3-0.8,0.8-0.8S116,0.6,116,1v5.5
					C116,6.9,115.7,7.3,115.3,7.3" />
                    <path id="Fill-32" class="st0" d="M121.8,7.3c-0.4,0-0.8-0.3-0.8-0.8V1c0-0.4,0.3-0.8,0.8-0.8s0.8,0.3,0.8,0.8v5.5
					C122.5,6.9,122.2,7.3,121.8,7.3" />
                    <path id="Fill-34" class="st0" d="M128.8,7.3c-0.4,0-0.8-0.3-0.8-0.8V1c0-0.4,0.3-0.8,0.8-0.8s0.8,0.3,0.8,0.8v5.5
					C129.5,6.9,129.2,7.3,128.8,7.3" />
                    <path id="Fill-36" class="st0" d="M134.8,7.3c-0.4,0-0.8-0.3-0.8-0.8V1c0-0.4,0.3-0.8,0.8-0.8s0.8,0.3,0.8,0.8v5.5
					C135.5,6.9,135.2,7.3,134.8,7.3" />
                    <path id="Fill-38" class="st0" d="M141.8,7.3c-0.4,0-0.8-0.3-0.8-0.8V1c0-0.4,0.3-0.8,0.8-0.8s0.8,0.3,0.8,0.8v5.5
					C142.5,6.9,142.2,7.3,141.8,7.3" />
                    <path id="Fill-40" class="st0" d="M148.3,7.3c-0.4,0-0.8-0.3-0.8-0.8V1c0-0.4,0.3-0.8,0.8-0.8S149,0.6,149,1v5.5
					C149,6.9,148.7,7.3,148.3,7.3" />
                    <path id="Fill-42" class="st0" d="M155.3,7.3c-0.4,0-0.8-0.3-0.8-0.8V1c0-0.4,0.3-0.8,0.8-0.8S156,0.6,156,1v5.5
					C156,6.9,155.7,7.3,155.3,7.3" />
                    <path id="Fill-44" class="st0" d="M161.8,7.3c-0.4,0-0.8-0.3-0.8-0.8V1c0-0.4,0.3-0.8,0.8-0.8s0.8,0.3,0.8,0.8v5.5
					C162.5,6.9,162.2,7.3,161.8,7.3" />
                    <path id="Fill-46" class="st0" d="M168.8,7.3c-0.4,0-0.8-0.3-0.8-0.8V1c0-0.4,0.3-0.8,0.8-0.8s0.8,0.3,0.8,0.8v5.5
					C169.5,6.9,169.2,7.3,168.8,7.3" />
                    <path id="Fill-48" class="st0" d="M175.3,7.3c-0.4,0-0.8-0.3-0.8-0.8V1c0-0.4,0.3-0.8,0.8-0.8S176,0.6,176,1v5.5
					C176,6.9,175.7,7.3,175.3,7.3" />
                    <path id="Fill-50" class="st0" d="M182.3,7.3c-0.4,0-0.8-0.3-0.8-0.8V1c0-0.4,0.3-0.8,0.8-0.8S183,0.6,183,1v5.5
					C183,6.9,182.7,7.3,182.3,7.3" />
                    <path id="Fill-52" class="st0" d="M188.8,7.3c-0.4,0-0.8-0.3-0.8-0.8V1c0-0.4,0.3-0.8,0.8-0.8s0.8,0.3,0.8,0.8v5.5
					C189.5,6.9,189.2,7.3,188.8,7.3" />
                    <path id="Fill-54" class="st0" d="M195.8,7.3c-0.4,0-0.8-0.3-0.8-0.8V1c0-0.4,0.3-0.8,0.8-0.8s0.8,0.3,0.8,0.8v5.5
					C196.5,6.9,196.2,7.3,195.8,7.3" />
                    <path id="Fill-56" class="st0" d="M202.3,7.3c-0.4,0-0.8-0.3-0.8-0.8V1c0-0.4,0.3-0.8,0.8-0.8S203,0.6,203,1v5.5
					C203,6.9,202.7,7.3,202.3,7.3" />
                    <path id="Fill-58" class="st0" d="M208.8,7.3c-0.4,0-0.8-0.3-0.8-0.8V1c0-0.4,0.3-0.8,0.8-0.8s0.8,0.3,0.8,0.8v5.5
					C209.5,6.9,209.2,7.3,208.8,7.3" />
                    <path id="Fill-60" class="st0" d="M215.3,7.3c-0.4,0-0.8-0.3-0.8-0.8V1c0-0.4,0.3-0.8,0.8-0.8S216,0.6,216,1v5.5
					C216,6.9,215.7,7.3,215.3,7.3" />
                    <path id="Fill-62" class="st0" d="M222.3,7.3c-0.4,0-0.8-0.3-0.8-0.8V1c0-0.4,0.3-0.8,0.8-0.8S223,0.6,223,1v5.5
					C223,6.9,222.7,7.3,222.3,7.3" />
                    <path id="Fill-64" class="st0" d="M228.8,7.3c-0.4,0-0.8-0.3-0.8-0.8V1c0-0.4,0.3-0.8,0.8-0.8s0.8,0.3,0.8,0.8v5.5
					C229.5,6.9,229.2,7.3,228.8,7.3" />
                    <path id="Fill-66" class="st0" d="M235.8,7.3c-0.4,0-0.8-0.3-0.8-0.8V1c0-0.4,0.3-0.8,0.8-0.8s0.8,0.3,0.8,0.8v5.5
					C236.5,6.9,236.2,7.3,235.8,7.3" />
                    <path id="Fill-68" class="st0" d="M242.3,7.3c-0.4,0-0.8-0.3-0.8-0.8V1c0-0.4,0.3-0.8,0.8-0.8S243,0.6,243,1v5.5
					C243,6.9,242.7,7.3,242.3,7.3" />
                    <path id="Fill-70" class="st0" d="M21.3,104.8c-0.4,0-0.8-0.3-0.8-0.8v-6.5c0-0.4,0.3-0.8,0.8-0.8s0.8,0.3,0.8,0.8v6.5
					C22,104.4,21.7,104.8,21.3,104.8" />
                    <path id="Fill-72" class="st0" d="M27.8,104.8c-0.4,0-0.8-0.3-0.8-0.8v-6.5c0-0.4,0.3-0.8,0.8-0.8s0.8,0.3,0.8,0.8v6.5
					C28.5,104.4,28.2,104.8,27.8,104.8" />
                    <path id="Fill-74" class="st0" d="M34.8,104.8c-0.4,0-0.8-0.3-0.8-0.8v-6.5c0-0.4,0.3-0.8,0.8-0.8s0.8,0.3,0.8,0.8v6.5
					C35.5,104.4,35.2,104.8,34.8,104.8" />
                    <path id="Fill-76" class="st0" d="M41.3,104.8c-0.4,0-0.8-0.3-0.8-0.8v-6.5c0-0.4,0.3-0.8,0.8-0.8s0.8,0.3,0.8,0.8v6.5
					C42,104.4,41.7,104.8,41.3,104.8" />
                    <path id="Fill-78" class="st0" d="M48.3,104.8c-0.4,0-0.8-0.3-0.8-0.8v-6.5c0-0.4,0.3-0.8,0.8-0.8s0.8,0.3,0.8,0.8v6.5
					C49,104.4,48.7,104.8,48.3,104.8" />
                    <path id="Fill-80" class="st0" d="M54.8,104.8c-0.4,0-0.8-0.3-0.8-0.8v-6.5c0-0.4,0.3-0.8,0.8-0.8s0.8,0.3,0.8,0.8v6.5
					C55.5,104.4,55.2,104.8,54.8,104.8" />
                    <path id="Fill-82" class="st0" d="M61.8,104.8c-0.4,0-0.8-0.3-0.8-0.8v-6.5c0-0.4,0.3-0.8,0.8-0.8s0.8,0.3,0.8,0.8v6.5
					C62.5,104.4,62.2,104.8,61.8,104.8" />
                    <path id="Fill-84" class="st0" d="M67.8,104.8c-0.4,0-0.8-0.3-0.8-0.8v-6.5c0-0.4,0.3-0.8,0.8-0.8s0.8,0.3,0.8,0.8v6.5
					C68.5,104.4,68.2,104.8,67.8,104.8" />
                    <path id="Fill-86" class="st0" d="M74.8,104.8c-0.4,0-0.8-0.3-0.8-0.8v-6.5c0-0.4,0.3-0.8,0.8-0.8s0.8,0.3,0.8,0.8v6.5
					C75.5,104.4,75.2,104.8,74.8,104.8" />
                    <path id="Fill-88" class="st0" d="M81.8,104.8c-0.4,0-0.8-0.3-0.8-0.8v-6.5c0-0.4,0.3-0.8,0.8-0.8s0.8,0.3,0.8,0.8v6.5
					C82.5,104.4,82.2,104.8,81.8,104.8" />
                    <path id="Fill-90" class="st0" d="M88.3,104.8c-0.4,0-0.8-0.3-0.8-0.8v-6.5c0-0.4,0.3-0.8,0.8-0.8s0.8,0.3,0.8,0.8v6.5
					C89,104.4,88.7,104.8,88.3,104.8" />
                    <path id="Fill-92" class="st0" d="M94.8,104.8c-0.4,0-0.8-0.3-0.8-0.8v-6.5c0-0.4,0.3-0.8,0.8-0.8s0.8,0.3,0.8,0.8v6.5
					C95.5,104.4,95.2,104.8,94.8,104.8" />
                    <path id="Fill-94" class="st0" d="M101.8,104.8c-0.4,0-0.8-0.3-0.8-0.8v-6.5c0-0.4,0.3-0.8,0.8-0.8s0.8,0.3,0.8,0.8v6.5
					C102.5,104.4,102.2,104.8,101.8,104.8" />
                    <path id="Fill-96" class="st0" d="M108.3,104.8c-0.4,0-0.8-0.3-0.8-0.8v-6.5c0-0.4,0.3-0.8,0.8-0.8s0.8,0.3,0.8,0.8v6.5
					C109,104.4,108.7,104.8,108.3,104.8" />
                    <path id="Fill-98" class="st0" d="M115.3,104.8c-0.4,0-0.8-0.3-0.8-0.8v-6.5c0-0.4,0.3-0.8,0.8-0.8s0.8,0.3,0.8,0.8v6.5
					C116,104.4,115.7,104.8,115.3,104.8" />
                    <path id="Fill-100" class="st0" d="M121.8,104.8c-0.4,0-0.8-0.3-0.8-0.8v-6.5c0-0.4,0.3-0.8,0.8-0.8s0.8,0.3,0.8,0.8v6.5
					C122.5,104.4,122.2,104.8,121.8,104.8" />
                    <path id="Fill-102" class="st0" d="M128.8,104.8c-0.4,0-0.8-0.3-0.8-0.8v-6.5c0-0.4,0.3-0.8,0.8-0.8s0.8,0.3,0.8,0.8v6.5
					C129.5,104.4,129.2,104.8,128.8,104.8" />
                    <path id="Fill-104" class="st0" d="M134.8,104.8c-0.4,0-0.8-0.3-0.8-0.8v-6.5c0-0.4,0.3-0.8,0.8-0.8s0.8,0.3,0.8,0.8v6.5
					C135.5,104.4,135.2,104.8,134.8,104.8" />
                    <path id="Fill-106" class="st0" d="M141.8,104.8c-0.4,0-0.8-0.3-0.8-0.8v-6.5c0-0.4,0.3-0.8,0.8-0.8s0.8,0.3,0.8,0.8v6.5
					C142.5,104.4,142.2,104.8,141.8,104.8" />
                    <path id="Fill-108" class="st0" d="M148.3,104.8c-0.4,0-0.8-0.3-0.8-0.8v-6.5c0-0.4,0.3-0.8,0.8-0.8s0.8,0.3,0.8,0.8v6.5
					C149,104.4,148.7,104.8,148.3,104.8" />
                    <path id="Fill-110" class="st0" d="M155.3,104.8c-0.4,0-0.8-0.3-0.8-0.8v-6.5c0-0.4,0.3-0.8,0.8-0.8s0.8,0.3,0.8,0.8v6.5
					C156,104.4,155.7,104.8,155.3,104.8" />
                    <path id="Fill-112" class="st0" d="M161.8,104.8c-0.4,0-0.8-0.3-0.8-0.8v-6.5c0-0.4,0.3-0.8,0.8-0.8s0.8,0.3,0.8,0.8v6.5
					C162.5,104.4,162.2,104.8,161.8,104.8" />
                    <path id="Fill-114" class="st0" d="M168.8,104.8c-0.4,0-0.8-0.3-0.8-0.8v-6.5c0-0.4,0.3-0.8,0.8-0.8s0.8,0.3,0.8,0.8v6.5
					C169.5,104.4,169.2,104.8,168.8,104.8" />
                    <path id="Fill-116" class="st0" d="M175.3,104.8c-0.4,0-0.8-0.3-0.8-0.8v-6.5c0-0.4,0.3-0.8,0.8-0.8s0.8,0.3,0.8,0.8v6.5
					C176,104.4,175.7,104.8,175.3,104.8" />
                    <path id="Fill-118" class="st0" d="M182.3,104.8c-0.4,0-0.8-0.3-0.8-0.8v-6.5c0-0.4,0.3-0.8,0.8-0.8s0.8,0.3,0.8,0.8v6.5
					C183,104.4,182.7,104.8,182.3,104.8" />
                    <path id="Fill-120" class="st0" d="M188.8,104.8c-0.4,0-0.8-0.3-0.8-0.8v-6.5c0-0.4,0.3-0.8,0.8-0.8s0.8,0.3,0.8,0.8v6.5
					C189.5,104.4,189.2,104.8,188.8,104.8" />
                    <path id="Fill-122" class="st0" d="M195.8,104.8c-0.4,0-0.8-0.3-0.8-0.8v-6.5c0-0.4,0.3-0.8,0.8-0.8s0.8,0.3,0.8,0.8v6.5
					C196.5,104.4,196.2,104.8,195.8,104.8" />
                    <path id="Fill-124" class="st0" d="M202.3,104.8c-0.4,0-0.8-0.3-0.8-0.8v-6.5c0-0.4,0.3-0.8,0.8-0.8s0.8,0.3,0.8,0.8v6.5
					C203,104.4,202.7,104.8,202.3,104.8" />
                    <path id="Fill-126" class="st0" d="M208.8,104.8c-0.4,0-0.8-0.3-0.8-0.8v-6.5c0-0.4,0.3-0.8,0.8-0.8s0.8,0.3,0.8,0.8v6.5
					C209.5,104.4,209.2,104.8,208.8,104.8" />
                    <path id="Fill-128" class="st0" d="M215.3,104.8c-0.4,0-0.8-0.3-0.8-0.8v-6.5c0-0.4,0.3-0.8,0.8-0.8s0.8,0.3,0.8,0.8v6.5
					C216,104.4,215.7,104.8,215.3,104.8" />
                    <path id="Fill-130" class="st0" d="M222.3,104.8c-0.4,0-0.8-0.3-0.8-0.8v-6.5c0-0.4,0.3-0.8,0.8-0.8s0.8,0.3,0.8,0.8v6.5
					C223,104.4,222.7,104.8,222.3,104.8" />
                    <path id="Fill-132" class="st0" d="M228.8,104.8c-0.4,0-0.8-0.3-0.8-0.8v-6.5c0-0.4,0.3-0.8,0.8-0.8s0.8,0.3,0.8,0.8v6.5
					C229.5,104.4,229.2,104.8,228.8,104.8" />
                    <path id="Fill-134" class="st0" d="M235.8,104.8c-0.4,0-0.8-0.3-0.8-0.8v-6.5c0-0.4,0.3-0.8,0.8-0.8s0.8,0.3,0.8,0.8v6.5
					C236.5,104.4,236.2,104.8,235.8,104.8" />
                    <path id="Fill-136" class="st0" d="M242.3,104.8c-0.4,0-0.8-0.3-0.8-0.8v-6.5c0-0.4,0.3-0.8,0.8-0.8s0.8,0.3,0.8,0.8v6.5
					C243,104.4,242.7,104.8,242.3,104.8" />
                    <path id="Fill-138" class="st0" d="M7.5,19.5H1c-0.4,0-0.8-0.3-0.8-0.8S0.6,18,1,18h6.5c0.4,0,0.8,0.3,0.8,0.8
					S7.9,19.5,7.5,19.5" />
                    <path id="Fill-140" class="st0" d="M7.5,26.5H1c-0.4,0-0.8-0.3-0.8-0.8S0.6,25,1,25h6.5c0.4,0,0.8,0.3,0.8,0.8
					S7.9,26.5,7.5,26.5" />
                    <path id="Fill-142" class="st0" d="M7.5,33H1c-0.4,0-0.8-0.3-0.8-0.8c0-0.4,0.3-0.8,0.8-0.8h6.5c0.4,0,0.8,0.3,0.8,0.8
					C8.3,32.7,7.9,33,7.5,33" />
                    <path id="Fill-144" class="st0" d="M7.5,39.5H1c-0.4,0-0.8-0.3-0.8-0.8S0.6,38,1,38h6.5c0.4,0,0.8,0.3,0.8,0.8
					S7.9,39.5,7.5,39.5" />
                    <path id="Fill-146" class="st0" d="M7.5,46.5H1c-0.4,0-0.8-0.3-0.8-0.8S0.6,45,1,45h6.5c0.4,0,0.8,0.3,0.8,0.8
					S7.9,46.5,7.5,46.5" />
                    <path id="Fill-148" class="st0" d="M7.5,53H1c-0.4,0-0.8-0.3-0.8-0.8s0.3-0.8,0.8-0.8h6.5c0.4,0,0.8,0.3,0.8,0.8S7.9,53,7.5,53" />
                    <path id="Fill-150" class="st0" d="M7.5,60H1c-0.4,0-0.8-0.3-0.8-0.8s0.3-0.8,0.8-0.8h6.5c0.4,0,0.8,0.3,0.8,0.8S7.9,60,7.5,60" />
                    <path id="Fill-152" class="st0" d="M7.5,66.5H1c-0.4,0-0.8-0.3-0.8-0.8S0.6,65,1,65h6.5c0.4,0,0.8,0.3,0.8,0.8
					S7.9,66.5,7.5,66.5" />
                    <path id="Fill-154" class="st0" d="M7.5,73h-6c-0.4,0-0.8-0.3-0.8-0.8s0.3-0.8,0.8-0.8h6c0.4,0,0.8,0.3,0.8,0.8S7.9,73,7.5,73" />
                    <path id="Fill-156" class="st0" d="M7.5,79.5h-6c-0.4,0-0.8-0.3-0.8-0.8S1.1,78,1.5,78h6c0.4,0,0.8,0.3,0.8,0.8
					S7.9,79.5,7.5,79.5" />
                    <path id="Fill-158" class="st0" d="M7.5,86.5h-6c-0.4,0-0.8-0.3-0.8-0.8S1.1,85,1.5,85h6c0.4,0,0.8,0.3,0.8,0.8
					S7.9,86.5,7.5,86.5" />
                    <path id="Fill-160" class="st0" d="M261.5,19.5h-6c-0.4,0-0.8-0.3-0.8-0.8s0.3-0.8,0.8-0.8h6c0.4,0,0.8,0.3,0.8,0.8
					S261.9,19.5,261.5,19.5" />
                    <path id="Fill-162" class="st0" d="M261.5,26.5h-6c-0.4,0-0.8-0.3-0.8-0.8s0.3-0.8,0.8-0.8h6c0.4,0,0.8,0.3,0.8,0.8
					S261.9,26.5,261.5,26.5" />
                    <path id="Fill-164" class="st0" d="M261.5,33h-6c-0.4,0-0.8-0.3-0.8-0.8c0-0.4,0.3-0.8,0.8-0.8h6c0.4,0,0.8,0.3,0.8,0.8
					C262.3,32.7,261.9,33,261.5,33" />
                    <path id="Fill-166" class="st0" d="M261.5,39.5h-6c-0.4,0-0.8-0.3-0.8-0.8s0.3-0.8,0.8-0.8h6c0.4,0,0.8,0.3,0.8,0.8
					S261.9,39.5,261.5,39.5" />
                    <path id="Fill-168" class="st0" d="M261.5,46.5h-6c-0.4,0-0.8-0.3-0.8-0.8s0.3-0.8,0.8-0.8h6c0.4,0,0.8,0.3,0.8,0.8
					S261.9,46.5,261.5,46.5" />
                    <path id="Fill-170" class="st0" d="M261.5,53h-6c-0.4,0-0.8-0.3-0.8-0.8s0.3-0.8,0.8-0.8h6c0.4,0,0.8,0.3,0.8,0.8
					S261.9,53,261.5,53" />
                    <path id="Fill-172" class="st0" d="M261.5,60h-6c-0.4,0-0.8-0.3-0.8-0.8s0.3-0.8,0.8-0.8h6c0.4,0,0.8,0.3,0.8,0.8
					S261.9,60,261.5,60" />
                    <path id="Fill-174" class="st0" d="M261.5,66.5h-6c-0.4,0-0.8-0.3-0.8-0.8s0.3-0.8,0.8-0.8h6c0.4,0,0.8,0.3,0.8,0.8
					S261.9,66.5,261.5,66.5" />
                    <path id="Fill-176" class="st0" d="M262,73h-6c-0.4,0-0.8-0.3-0.8-0.8s0.3-0.8,0.8-0.8h6c0.4,0,0.8,0.3,0.8,0.8S262.4,73,262,73
					" />
                    <path id="Fill-178" class="st0" d="M262,79.5h-6c-0.4,0-0.8-0.3-0.8-0.8s0.3-0.8,0.8-0.8h6c0.4,0,0.8,0.3,0.8,0.8
					S262.4,79.5,262,79.5" />
                    <path id="Fill-180" class="st0" d="M262,86.5h-6c-0.4,0-0.8-0.3-0.8-0.8s0.3-0.8,0.8-0.8h6c0.4,0,0.8,0.3,0.8,0.8
					S262.4,86.5,262,86.5" />
                    <polygon id="Fill-182" class="st1" points="249.4,4.4 249.3,4.5 14.1,4.5 14.1,4.4 5.1,13.4 5,13.3 5,90.8 5.1,90.7 14.1,99.5
					249.3,99.5 258.5,90.8 258.5,13.3 				" />
                    <polygon id="Fill-184" class="st2" points="249.4,4.4 249.3,4.5 14.1,4.5 14.1,4.4 5.1,13.4 5,13.3 5,90.8 5.1,90.7 14.1,99.5
					249.3,99.5 258.5,90.8 258.5,13.3 				" />
                </g>
                <g id="Group-189" transform="translate(81.500000, 200.500000)">
                    <g id="Clip-188">
                    </g>
                    <defs>
                        <filter id="Adobe_OpacityMaskFilter" filterUnits="userSpaceOnUse" x="-4.5" y="-4.5" width="52" height="53">
                            <feColorMatrix type="matrix" values="1 0 0 0 0  0 1 0 0 0  0 0 1 0 0  0 0 0 1 0" />
                        </filter>
                    </defs>
                    <mask maskUnits="userSpaceOnUse" x="-4.5" y="-4.5" width="52" height="53" id="mask-2_1_">
                        <g class="st3">
                            <path id="path-1_1_" class="st4" d="M8.5,0H43v34.5H8.5v-18H13V30h25.5V4.5H13v2H8.5V0z M0,10h34v18h-4.5V14H4v26h25.5v-3H34
							v7H0V10z" />
                        </g>
                    </mask>
                    <polygon id="Fill-187" class="st5" points="-4.5,48.5 47.5,48.5 47.5,-4.5 -4.5,-4.5 				" />
                </g>
                <g id="Group-192" transform="translate(137.500000, 210.000000)">
                    <g id="Clip-191">
                    </g>
                    <defs>
                        <filter id="Adobe_OpacityMaskFilter_1_" filterUnits="userSpaceOnUse" x="-4" y="-4.5" width="147.5" height="34">
                            <feColorMatrix type="matrix" values="1 0 0 0 0  0 1 0 0 0  0 0 1 0 0  0 0 0 1 0" />
                        </filter>
                    </defs>
                    <mask maskUnits="userSpaceOnUse" x="-4" y="-4.5" width="147.5" height="34" id="mask-4_1_">
                        <g class="st6">
                            <path id="path-3_1_" class="st4" d="M135.6,0l-5.6,10l-0.2,1l-0.2-1l-5.6-10h-3.4l7.5,12.2L120.2,25h3.5l5.8-10.3l0.2-0.9
							l0.2,0.9l5.8,10.3h3.5l-7.7-12.8L139,0H135.6z M100.5,0v25H115v-2h-12v-9.5h10.5V11H103V2.5h12V0H100.5z M77,0h7.1
							C89.7,0,93,2.9,93,7.7c0,4.1-2.1,6.6-5.5,7.4l0.7,0.6L94,25h-3.4l-5.5-10h-5.6v10H77V0z M79.5,2.5v11h5c3.4,0,5.6-1.9,5.6-5.6
							c0-3.4-2-5.4-5.4-5.4H79.5z M53.5,0v2.5h8V25H64V2.5h6.5V0H53.5z M33,0v2.5h6.5V25H43V2.5h6.5V0H33z M24,25h2.5V0H24V25z M0,0
							h8.4c5,0,8,2.3,8,6.3c0,3-1.5,5.1-4.1,5.9c3.4,0.8,5.3,2.9,5.3,6c0,4.3-3.1,6.8-8.4,6.8H0V0z M3,2.5V11h5.7
							c2.9,0,4.7-1.6,4.7-4.6c0-2.6-1.9-3.9-5.1-3.9H3z M3,13.5V23h6.1c3.5,0,5.5-1.8,5.5-4.6c0-2.9-2.1-4.9-5.3-4.9H3z" />
                        </g>
                    </mask>
                    <polygon id="Fill-190" class="st7" points="-4,29.5 143.5,29.5 143.5,-4.5 -4,-4.5 				" />
                </g>
                <g id="Group-511" transform="translate(0.000000, 0.500000)">
                    <path id="Fill-193" class="st0" d="M74.8,166.3c-0.4,0-0.8-0.3-0.8-0.8V155L40.5,97.3V43c0-0.4,0.3-0.8,0.8-0.8S42,42.6,42,43
					v53.9l33.5,57.6v11C75.5,165.9,75.2,166.3,74.8,166.3" />
                    <path id="Fill-195" class="st0" d="M215.8,311.3c-0.4,0-0.8-0.3-0.8-0.8v-31c0-0.4,0.3-0.8,0.8-0.8s0.8,0.3,0.8,0.8v31
					C216.5,310.9,216.2,311.3,215.8,311.3" />
                    <path id="Fill-197" class="st0" d="M155.3,306.3c-0.4,0-0.8-0.3-0.8-0.8v-26c0-0.4,0.3-0.8,0.8-0.8s0.8,0.3,0.8,0.8v26
					C156,305.9,155.7,306.3,155.3,306.3" />
                    <path id="Fill-199" class="st0" d="M135,326c-0.1,0-0.3,0-0.4-0.1c-0.4-0.2-0.5-0.7-0.3-1l13.6-23.5v-21.9
					c0-0.4,0.3-0.8,0.8-0.8s0.8,0.3,0.8,0.8v22.3l-13.9,23.8C135.5,325.9,135.3,326,135,326" />
                    <path id="Fill-201" class="st0" d="M252.3,355.3c-0.4,0-0.8-0.3-0.8-0.8v-19.1L235,307.1v-27.6c0-0.4,0.3-0.8,0.8-0.8
					s0.8,0.3,0.8,0.8v27.2L253,335v19.5C253,354.9,252.7,355.3,252.3,355.3" />
                    <path id="Fill-203" class="st0" d="M334.3,467.3c-0.4,0-0.8-0.3-0.8-0.8v-29.6l-22-36.8v-0.2c0-13.4,0-38.7,0-41L282,308.3
					v-28.8c0-0.4,0.3-0.8,0.8-0.8s0.8,0.3,0.8,0.8v28.4l29.2,50.4l0,0c0.1,0.3,0.1,1.3,0.1,6.8c0,3.9,0,9,0,14.2
					c0,9.4-0.1,18.9-0.1,20.4l22.2,36.8v30C335,466.9,334.7,467.3,334.3,467.3" />
                    <path id="Fill-205" class="st0" d="M95.9,349L95.9,349c-0.4,0-0.8-0.5-0.8-0.9c0-6.5,0-7.3,0.2-7.6l18.6-32v-29
					c0-0.4,0.3-0.8,0.8-0.8c0.4,0,0.8,0.3,0.8,0.8V309l-0.1,0.2l-18.7,32.1c0,0.8-0.1,4.6-0.1,6.9C96.7,348.5,96.3,349,95.9,349" />
                    <path id="Fill-207" class="st0" d="M341.8,313.8c-0.4,0-0.8-0.3-0.8-0.8v-22.5l-19.7-34H314c-0.4,0-0.8-0.3-0.8-0.8
					s0.3-0.8,0.8-0.8h8.2l20.3,35.1V313C342.5,313.4,342.2,313.8,341.8,313.8" />
                    <path id="Fill-209" class="st0" d="M266.3,342.6c-1.6,0-2.9,1.3-2.9,2.9c0,1.6,1.3,2.9,2.9,2.9s2.9-1.3,2.9-2.9
					C269.2,343.9,267.9,342.6,266.3,342.6 M266.3,349.6c-2.3,0-4.1-1.9-4.1-4.1c0-2.3,1.9-4.1,4.1-4.1c2.3,0,4.1,1.9,4.1,4.1
					C270.4,347.8,268.6,349.6,266.3,349.6" />
                    <path id="Fill-211" class="st0" d="M322.2,189.5H314c-0.4,0-0.8-0.3-0.8-0.8s0.3-0.8,0.8-0.8h7.3l9.7-16.7v-32.8
					c0-0.4,0.3-0.8,0.8-0.8s0.8,0.3,0.8,0.8v33.2L322.2,189.5z" />
                    <path id="Fill-213" class="st0" d="M351.8,196.6c-1.6,0-2.9,1.3-2.9,2.9s1.3,2.9,2.9,2.9s2.9-1.3,2.9-2.9
					S353.3,196.6,351.8,196.6 M351.8,203.6c-2.3,0-4.1-1.8-4.1-4.1s1.8-4.1,4.1-4.1c2.3,0,4.1,1.8,4.1,4.1S354,203.6,351.8,203.6" />
                    <path id="Fill-215" class="st0" d="M153.3,352.3c-0.4,0-0.8-0.3-0.8-0.8v-22.4l0.1-0.2l8.9-15.2v-34.2c0-0.4,0.3-0.8,0.8-0.8
					s0.8,0.3,0.8,0.8v34.6l-0.1,0.2l-8.9,15.2v22C154,351.9,153.7,352.3,153.3,352.3" />
                    <path id="Fill-217" class="st0" d="M160.3,336.3c-0.4,0-0.8-0.3-0.8-0.8v-4.6l8.5-14.6v-36.7c0-0.4,0.3-0.8,0.8-0.8
					s0.8,0.3,0.8,0.8v37.1l-8.5,14.6v4.2C161,335.9,160.7,336.3,160.3,336.3" />
                    <path id="Fill-219" class="st0" d="M22.6,463.7c-3,0-5.4,2.4-5.4,5.4c0,3,2.4,5.4,5.4,5.4c3,0,5.4-2.4,5.4-5.4
					C28,466.1,25.6,463.7,22.6,463.7 M22.6,475.8c-3.7,0-6.7-3-6.7-6.7c0-3.7,3-6.7,6.7-6.7s6.7,3,6.7,6.7
					C29.3,472.8,26.3,475.8,22.6,475.8" />
                    <path id="Fill-221" class="st0" d="M14.3,327.3c-0.4,0-0.8-0.3-0.8-0.8V294l22.6-39h6.4c0.4,0,0.8,0.3,0.8,0.8s-0.3,0.8-0.8,0.8
					H37l-22,38v32C15,326.9,14.7,327.3,14.3,327.3" />
                    <path id="Fill-223" class="st0" d="M153.3,352.2c-2.1,0-3.8,1.7-3.8,3.8s1.7,3.8,3.8,3.8c2.1,0,3.8-1.7,3.8-3.8
					S155.4,352.2,153.3,352.2 M153.3,361.1c-2.8,0-5.1-2.3-5.1-5.1s2.3-5.1,5.1-5.1c2.8,0,5.1,2.3,5.1,5.1S156.1,361.1,153.3,361.1" />
                    <path id="Fill-225" class="st0" d="M343.8,102.9c-2.1,0-3.8,1.7-3.8,3.8c0,2.1,1.7,3.8,3.8,3.8s3.8-1.7,3.8-3.8
					C347.6,104.6,345.8,102.9,343.8,102.9 M343.8,111.7c-2.8,0-5.1-2.3-5.1-5.1s2.3-5.1,5.1-5.1s5.1,2.3,5.1,5.1
					S346.5,111.7,343.8,111.7" />
                    <path id="Fill-227" class="st0" d="M57.3,60.9c-2.1,0-3.8,1.7-3.8,3.8c0,2.1,1.7,3.8,3.8,3.8s3.8-1.7,3.8-3.8
					C61.1,62.6,59.3,60.9,57.3,60.9 M57.3,69.7c-2.8,0-5.1-2.3-5.1-5.1c0-2.8,2.3-5.1,5.1-5.1s5.1,2.3,5.1,5.1
					C62.3,67.5,60,69.7,57.3,69.7" />
                    <path id="Fill-229" class="st0" d="M17.7,272.5H6c-0.4,0-0.8-0.3-0.8-0.8S5.6,271,6,271h10.9l13.4-23h12.2
					c0.4,0,0.8,0.3,0.8,0.8s-0.3,0.8-0.8,0.8H31.2L17.7,272.5z" />
                    <path id="Fill-231" class="st0" d="M3.4,269.9c-1,0-1.9,0.8-1.9,1.9c0,1,0.8,1.9,1.9,1.9c1,0,1.9-0.8,1.9-1.9
					C5.3,270.7,4.4,269.9,3.4,269.9 M3.4,274.9c-1.7,0-3.1-1.4-3.1-3.1c0-1.7,1.4-3.1,3.1-3.1s3.1,1.4,3.1,3.1
					C6.5,273.5,5.1,274.9,3.4,274.9" />
                    <path id="Fill-233" class="st0" d="M20.3,111.2c-1,0-1.9,0.8-1.9,1.9c0,1,0.8,1.9,1.9,1.9s1.9-0.8,1.9-1.9
					C22.1,112,21.3,111.2,20.3,111.2 M20.3,116.2c-1.7,0-3.1-1.4-3.1-3.1c0-1.7,1.4-3.1,3.1-3.1s3.1,1.4,3.1,3.1
					C23.4,114.8,22,116.2,20.3,116.2" />
                    <path id="Fill-235" class="st0" d="M42.5,223h-8l-5.5-9.5H12c-0.4,0-0.8-0.3-0.8-0.8s0.3-0.8,0.8-0.8h17.9l5.5,9.5h7.1
					c0.4,0,0.8,0.3,0.8,0.8S42.9,223,42.5,223" />
                    <path id="Fill-237" class="st0" d="M9.2,210.9c-1,0-1.9,0.8-1.9,1.9c0,1,0.8,1.9,1.9,1.9c1,0,1.9-0.8,1.9-1.9
					C11.1,211.7,10.3,210.9,9.2,210.9 M9.2,215.9c-1.7,0-3.1-1.4-3.1-3.1c0-1.7,1.4-3.1,3.1-3.1s3.1,1.4,3.1,3.1
					C12.4,214.5,11,215.9,9.2,215.9" />
                    <path id="Fill-239" class="st0" d="M42.5,230H29.9l-5.5-9.5h-5.9c-0.4,0-0.8-0.3-0.8-0.8s0.3-0.8,0.8-0.8h6.7l5.5,9.5h11.7
					c0.4,0,0.8,0.3,0.8,0.8S42.9,230,42.5,230" />
                    <path id="Fill-241" class="st0" d="M15.7,217.9c-1,0-1.9,0.8-1.9,1.9c0,1,0.8,1.9,1.9,1.9c1,0,1.9-0.8,1.9-1.9
					C17.6,218.7,16.8,217.9,15.7,217.9 M15.7,222.9c-1.7,0-3.1-1.4-3.1-3.1c0-1.7,1.4-3.1,3.1-3.1s3.1,1.4,3.1,3.1
					C18.9,221.5,17.5,222.9,15.7,222.9" />
                    <path id="Fill-243" class="st0" d="M329.3,236.5H314c-0.4,0-0.8-0.3-0.8-0.8s0.3-0.8,0.8-0.8h14.4l5.7-9.5h19.4
					c0.4,0,0.8,0.3,0.8,0.8s-0.3,0.8-0.8,0.8H335L329.3,236.5z" />
                    <path id="Fill-245" class="st0" d="M24.8,427.4c-0.1,0-0.3,0-0.4-0.1c-0.4-0.2-0.5-0.7-0.3-1L39,400.5v-49l0.1-0.2L74,291v-11.5
					c0-0.4,0.3-0.8,0.8-0.8c0.4,0,0.8,0.3,0.8,0.8v12l-0.1,0.2l-34.9,60.3v49L25.4,427C25.3,427.3,25,427.4,24.8,427.4" />
                    <path id="Fill-247" class="st0" d="M23.2,427c-1.6,0-2.9,1.3-2.9,2.9s1.3,2.9,2.9,2.9c1.6,0,2.9-1.3,2.9-2.9S24.7,427,23.2,427
					 M23.2,434c-2.3,0-4.1-1.8-4.1-4.1c0-2.3,1.8-4.1,4.1-4.1c2.3,0,4.1,1.8,4.1,4.1C27.3,432.1,25.4,434,23.2,434" />
                    <path id="Fill-249" class="st0" d="M62.8,492c-1.6,0-2.9,1.3-2.9,2.9s1.3,2.9,2.9,2.9c1.6,0,2.9-1.3,2.9-2.9S64.3,492,62.8,492
					 M62.8,499c-2.3,0-4.1-1.8-4.1-4.1c0-2.3,1.8-4.1,4.1-4.1s4.1,1.8,4.1,4.1C66.9,497.1,65,499,62.8,499" />
                    <path id="Fill-251" class="st0" d="M21.3,376.3c-0.4,0-0.8-0.3-0.8-0.8v-8.7l0.1-0.2L67.5,286v-6.5c0-0.4,0.3-0.8,0.8-0.8
					s0.8,0.3,0.8,0.8v7l-0.1,0.2L22,367.2v8.3C22,375.9,21.7,376.3,21.3,376.3" />
                    <path id="Fill-253" class="st0" d="M340,243h-26c-0.4,0-0.8-0.3-0.8-0.8s0.3-0.8,0.8-0.8h26c0.4,0,0.8,0.3,0.8,0.8
					S340.4,243,340,243" />
                    <path id="Fill-255" class="st0" d="M355.8,224.9c-0.7,0-1.3,0.6-1.3,1.3c0,0.7,0.6,1.3,1.3,1.3c0.7,0,1.3-0.6,1.3-1.3
					C357.1,225.5,356.5,224.9,355.8,224.9 M355.8,228.7c-1.4,0-2.5-1.1-2.5-2.5c0-1.4,1.1-2.5,2.5-2.5c1.4,0,2.5,1.1,2.5,2.5
					C358.4,227.6,357.2,228.7,355.8,228.7" />
                    <path id="Fill-257" class="st0" d="M42.5,236H10l-4-6.4c-0.2-0.4-0.1-0.8,0.2-1c0.4-0.2,0.8-0.1,1,0.2l3.6,5.7h31.7
					c0.4,0,0.8,0.3,0.8,0.8S42.9,236,42.5,236" />
                    <path id="Fill-259" class="st0" d="M5.7,226.5c-0.5,0-0.9,0.4-0.9,0.9c0,0.5,0.4,0.9,0.9,0.9s0.9-0.4,0.9-0.9
					C6.6,226.9,6.2,226.5,5.7,226.5 M5.7,229.6c-1.2,0-2.2-1-2.2-2.2c0-1.2,1-2.2,2.2-2.2s2.2,1,2.2,2.2
					C7.9,228.7,6.9,229.6,5.7,229.6" />
                    <path id="Fill-261" class="st0" d="M11.6,255.6c-0.1,0-0.3,0-0.4-0.1c-0.4-0.2-0.5-0.7-0.3-1l7.5-13h24c0.4,0,0.8,0.3,0.8,0.8
					s-0.3,0.8-0.8,0.8H19.3l-7.1,12.2C12.1,255.5,11.9,255.6,11.6,255.6" />
                    <path id="Fill-263" class="st0" d="M42.5,189.5H30.4l-10.9-19V116c0-0.4,0.3-0.8,0.8-0.8s0.8,0.3,0.8,0.8v54.1L31.3,188h11.2
					c0.4,0,0.8,0.3,0.8,0.8S42.9,189.5,42.5,189.5" />
                    <path id="Fill-265" class="st0" d="M326.7,196.5H314c-0.4,0-0.8-0.3-0.8-0.8s0.3-0.8,0.8-0.8h11.8l17.2-29.7v-53.8
					c0-0.4,0.3-0.8,0.8-0.8s0.8,0.3,0.8,0.8v54.2L326.7,196.5z" />
                    <path id="Fill-267" class="st0" d="M252.3,355.4c-1.2,0-2.2,1-2.2,2.2c0,1.2,1,2.2,2.2,2.2s2.2-1,2.2-2.2
					C254.5,356.4,253.5,355.4,252.3,355.4 M252.3,361.1c-1.9,0-3.5-1.6-3.5-3.5c0-1.9,1.6-3.5,3.5-3.5s3.5,1.6,3.5,3.5
					C255.7,359.6,254.2,361.1,252.3,361.1" />
                    <path id="Fill-269" class="st0" d="M288.8,350.4c-1.2,0-2.2,1-2.2,2.2c0,1.2,1,2.2,2.2,2.2s2.2-1,2.2-2.2
					C291,351.4,290,350.4,288.8,350.4 M288.8,356.1c-1.9,0-3.5-1.6-3.5-3.5c0-1.9,1.6-3.5,3.5-3.5s3.5,1.6,3.5,3.5
					C292.2,354.6,290.7,356.1,288.8,356.1" />
                    <path id="Fill-271" class="st0" d="M155.3,306.4c-1.2,0-2.2,1-2.2,2.2c0,1.2,1,2.2,2.2,2.2s2.2-1,2.2-2.2
					C157.5,307.4,156.5,306.4,155.3,306.4 M155.3,312.1c-1.9,0-3.5-1.6-3.5-3.5c0-1.9,1.6-3.5,3.5-3.5s3.5,1.6,3.5,3.5
					C158.7,310.6,157.2,312.1,155.3,312.1" />
                    <path id="Fill-273" class="st0" d="M215.8,166.3c-0.4,0-0.8-0.3-0.8-0.8V83c0-0.4,0.3-0.8,0.8-0.8s0.8,0.3,0.8,0.8v82.5
					C216.5,165.9,216.2,166.3,215.8,166.3" />
                    <path id="Fill-275" class="st0" d="M155.8,166.8c-0.4,0-0.8-0.3-0.8-0.8V39c0-0.4,0.3-0.8,0.8-0.8s0.8,0.3,0.8,0.8v127
					C156.5,166.4,156.2,166.8,155.8,166.8" />
                    <path id="Fill-277" class="st0" d="M81.8,166.3c-0.4,0-0.8-0.3-0.8-0.8V153l-24.5-42.2V69.5c0-0.4,0.3-0.8,0.8-0.8
					s0.8,0.3,0.8,0.8v40.8l24.5,42.2v13C82.5,165.9,82.2,166.3,81.8,166.3" />
                    <path id="Fill-279" class="st0" d="M128.8,166.3c-0.4,0-0.8-0.3-0.8-0.8v-39.7l-11.9-20.5c-0.2-0.4-0.1-0.8,0.3-1
					c0.4-0.2,0.8-0.1,1,0.3l12.1,20.9v40.1C129.5,165.9,129.2,166.3,128.8,166.3" />
                    <path id="Fill-281" class="st0" d="M135.3,166.3c-0.4,0-0.8-0.3-0.8-0.8V109l-15.1-26.1c-0.2-0.4-0.1-0.8,0.3-1
					c0.4-0.2,0.8-0.1,1,0.3l15.4,26.5v56.9C136,165.9,135.7,166.3,135.3,166.3" />
                    <path id="Fill-283" class="st0" d="M108.8,166.3c-0.4,0-0.8-0.3-0.8-0.8V142c0-0.4,0.3-0.8,0.8-0.8s0.8,0.3,0.8,0.8v23.5
					C109.5,165.9,109.2,166.3,108.8,166.3" />
                    <path id="Fill-285" class="st0" d="M108.8,136.9c-1.1,0-2.1,0.9-2.1,2.1s0.9,2.1,2.1,2.1c1.1,0,2.1-0.9,2.1-2.1
					S109.9,136.9,108.8,136.9 M108.8,142.3c-1.8,0-3.3-1.5-3.3-3.3c0-1.8,1.5-3.3,3.3-3.3c1.8,0,3.3,1.5,3.3,3.3
					C112.1,140.8,110.6,142.3,108.8,142.3" />
                    <path id="Fill-287" class="st0" d="M331.8,133.4c-1.1,0-2.1,0.9-2.1,2.1s0.9,2.1,2.1,2.1s2.1-0.9,2.1-2.1
					S332.9,133.4,331.8,133.4 M331.8,138.8c-1.8,0-3.3-1.5-3.3-3.3c0-1.8,1.5-3.3,3.3-3.3s3.3,1.5,3.3,3.3
					C335.1,137.3,333.6,138.8,331.8,138.8" />
                    <path id="Fill-289" class="st0" d="M262.3,166.3c-0.4,0-0.8-0.3-0.8-0.8v-48c0-0.4,0.3-0.8,0.8-0.8s0.8,0.3,0.8,0.8v48
					C263,165.9,262.7,166.3,262.3,166.3" />
                    <path id="Fill-291" class="st0" d="M262.3,112.4c-1.1,0-2.1,0.9-2.1,2.1s0.9,2.1,2.1,2.1s2.1-0.9,2.1-2.1
					S263.4,112.4,262.3,112.4 M262.3,117.8c-1.8,0-3.3-1.5-3.3-3.3c0-1.8,1.5-3.3,3.3-3.3s3.3,1.5,3.3,3.3
					C265.6,116.3,264.1,117.8,262.3,117.8" />
                    <path id="Fill-293" class="st0" d="M262.3,49.9c-1.1,0-2.1,0.9-2.1,2.1c0,1.1,0.9,2.1,2.1,2.1s2.1-0.9,2.1-2.1
					C264.3,50.8,263.4,49.9,262.3,49.9 M262.3,55.3c-1.8,0-3.3-1.5-3.3-3.3c0-1.8,1.5-3.3,3.3-3.3s3.3,1.5,3.3,3.3
					C265.6,53.8,264.1,55.3,262.3,55.3" />
                    <path id="Fill-295" class="st0" d="M208.8,166.3c-0.4,0-0.8-0.3-0.8-0.8V105c0-0.4,0.3-0.8,0.8-0.8s0.8,0.3,0.8,0.8v60.5
					C209.5,165.9,209.2,166.3,208.8,166.3" />
                    <path id="Fill-297" class="st0" d="M208.8,99.9c-1.1,0-2.1,0.9-2.1,2.1s0.9,2.1,2.1,2.1s2.1-0.9,2.1-2.1S209.9,99.9,208.8,99.9
					 M208.8,105.3c-1.8,0-3.3-1.5-3.3-3.3c0-1.8,1.5-3.3,3.3-3.3s3.3,1.5,3.3,3.3C212.1,103.8,210.6,105.3,208.8,105.3" />
                    <path id="Fill-299" class="st0" d="M181.8,166.3c-0.4,0-0.8-0.3-0.8-0.8v-48c0-0.4,0.3-0.8,0.8-0.8s0.8,0.3,0.8,0.8v48
					C182.5,165.9,182.2,166.3,181.8,166.3" />
                    <path id="Fill-301" class="st0" d="M181.8,110.1c-1.8,0-3.3,1.5-3.3,3.3c0,1.8,1.5,3.3,3.3,3.3s3.3-1.5,3.3-3.3
					C185.1,111.6,183.6,110.1,181.8,110.1 M181.8,118c-2.5,0-4.6-2.1-4.6-4.6c0-2.5,2.1-4.6,4.6-4.6s4.6,2.1,4.6,4.6
					C186.3,116,184.3,118,181.8,118" />
                    <path id="Fill-303" class="st0" d="M245.8,53.6c-1.7,0-3.1,1.4-3.1,3.1c0,1.7,1.4,3.1,3.1,3.1s3.1-1.4,3.1-3.1
					C248.9,55,247.5,53.6,245.8,53.6 M245.8,61.1c-2.4,0-4.4-2-4.4-4.4c0-2.4,2-4.4,4.4-4.4s4.4,2,4.4,4.4
					C250.1,59.2,248.2,61.1,245.8,61.1" />
                    <path id="Fill-305" class="st0" d="M312.5,80.6c-1.7,0-3.1,1.4-3.1,3.1c0,1.7,1.4,3.1,3.1,3.1c1.7,0,3.1-1.4,3.1-3.1
					C315.6,82,314.2,80.6,312.5,80.6 M312.5,88.1c-2.4,0-4.4-2-4.4-4.4c0-2.4,2-4.4,4.4-4.4s4.4,2,4.4,4.4
					C316.9,86.2,314.9,88.1,312.5,88.1" />
                    <path id="Fill-307" class="st0" d="M101.8,166.3c-0.4,0-0.8-0.3-0.8-0.8V144L86.5,119V97c0-0.4,0.3-0.8,0.8-0.8S88,96.6,88,97
					v21.5l14.5,25.1v21.9C102.5,165.9,102.2,166.3,101.8,166.3" />
                    <path id="Fill-309" class="st0" d="M87.3,89.8c-1.7,0-3.1,1.4-3.1,3.1c0,1.7,1.4,3.1,3.1,3.1s3.1-1.4,3.1-3.1
					C90.4,91.2,89,89.8,87.3,89.8 M87.3,97.2c-2.4,0-4.4-2-4.4-4.4c0-2.4,2-4.4,4.4-4.4s4.4,2,4.4,4.4
					C91.6,95.3,89.7,97.2,87.3,97.2" />
                    <path id="Fill-311" class="st0" d="M222.3,166.3c-0.4,0-0.8-0.3-0.8-0.8v-64.1l0.1-0.2l13.9-23.9V19.5c0-0.4,0.3-0.8,0.8-0.8
					s0.8,0.3,0.8,0.8v58.2l-0.1,0.2L223,101.8v63.7C223,165.9,222.7,166.3,222.3,166.3" />
                    <path id="Fill-313" class="st0" d="M229.3,166.3c-0.4,0-0.8-0.3-0.8-0.8v-60.6L245,76.5V61c0-0.4,0.3-0.8,0.8-0.8
					s0.8,0.3,0.8,0.8v15.9L230,105.3v60.2C230,165.9,229.7,166.3,229.3,166.3" />
                    <path id="Fill-315" class="st0" d="M242.8,166.3c-0.4,0-0.8-0.3-0.8-0.8v-56.6l0.1-0.2l19.4-33.4V55c0-0.4,0.3-0.8,0.8-0.8
					s0.8,0.3,0.8,0.8v20.7l-0.1,0.2l-19.4,33.4v56.2C243.5,165.9,243.2,166.3,242.8,166.3" />
                    <path id="Fill-317" class="st0" d="M249.3,166.3c-0.4,0-0.8-0.3-0.8-0.8v-53.1l0.1-0.2L268,78.8V37.5c0-0.4,0.3-0.8,0.8-0.8
					s0.8,0.3,0.8,0.8v41.7l-0.1,0.2L250,112.8v52.7C250,165.9,249.7,166.3,249.3,166.3" />
                    <path id="Fill-319" class="st0" d="M236.3,12.2c-1.7,0-3.1,1.4-3.1,3.1c0,1.7,1.4,3.1,3.1,3.1s3.1-1.4,3.1-3.1
					C239.4,13.6,238,12.2,236.3,12.2 M236.3,19.7c-2.4,0-4.4-2-4.4-4.4c0-2.4,2-4.4,4.4-4.4s4.4,2,4.4,4.4
					C240.6,17.7,238.7,19.7,236.3,19.7" />
                    <path id="Fill-321" class="st0" d="M268.8,30.2c-1.7,0-3.1,1.4-3.1,3.1c0,1.7,1.4,3.1,3.1,3.1s3.1-1.4,3.1-3.1
					C271.9,31.6,270.5,30.2,268.8,30.2 M268.8,37.7c-2.4,0-4.4-2-4.4-4.4c0-2.4,2-4.4,4.4-4.4s4.4,2,4.4,4.4
					C273.1,35.7,271.2,37.7,268.8,37.7" />
                    <path id="Fill-323" class="st0" d="M68.3,166.3c-0.4,0-0.8-0.3-0.8-0.8V158L33,98.5V77.8L20.5,56.1c-0.2-0.4-0.1-0.8,0.3-1
					c0.4-0.2,0.8-0.1,1,0.3l12.7,22v20.7L69,157.5v8C69,165.9,68.7,166.3,68.3,166.3" />
                    <path id="Fill-325" class="st0" d="M289.3,166.3c-0.4,0-0.8-0.3-0.8-0.8V141l0.1-0.2L323,81.6V69.9l0.1-0.2l12.1-20.9
					c0.2-0.4,0.7-0.5,1-0.3c0.4,0.2,0.5,0.7,0.3,1l-12,20.7V82l-0.1,0.2L290,141.5v24C290,165.9,289.7,166.3,289.3,166.3" />
                    <path id="Fill-327" class="st0" d="M19.4,51.6c-1,0-1.9,0.8-1.9,1.9s0.8,1.9,1.9,1.9c1,0,1.9-0.8,1.9-1.9S20.5,51.6,19.4,51.6
					 M19.4,56.6c-1.7,0-3.1-1.4-3.1-3.1c0-1.7,1.4-3.1,3.1-3.1s3.1,1.4,3.1,3.1C22.6,55.2,21.2,56.6,19.4,56.6" />
                    <path id="Fill-329" class="st0" d="M42.5,196.5H25.7L7.5,165.3c-0.2-0.4-0.1-0.8,0.3-1c0.4-0.2,0.8-0.1,1,0.3L26.6,195h15.9
					c0.4,0,0.8,0.3,0.8,0.8S42.9,196.5,42.5,196.5" />
                    <path id="Fill-331" class="st0" d="M5.8,158.4c-1.7,0-3.2,1.4-3.2,3.2c0,1.7,1.4,3.2,3.2,3.2s3.2-1.4,3.2-3.2
					C9,159.8,7.6,158.4,5.8,158.4 M5.8,166c-2.4,0-4.4-2-4.4-4.4c0-2.4,2-4.4,4.4-4.4c2.4,0,4.4,2,4.4,4.4C10.3,164,8.3,166,5.8,166
					" />
                    <path id="Fill-333" class="st0" d="M14.3,327.4c-1.7,0-3.2,1.4-3.2,3.2s1.4,3.2,3.2,3.2s3.2-1.4,3.2-3.2S16.1,327.4,14.3,327.4
					 M14.3,335c-2.4,0-4.4-2-4.4-4.4c0-2.4,2-4.4,4.4-4.4c2.4,0,4.4,2,4.4,4.4C18.8,333,16.8,335,14.3,335" />
                    <path id="Fill-335" class="st0" d="M115.3,100.3c-1,0-1.9,0.8-1.9,1.9c0,1,0.8,1.9,1.9,1.9c1,0,1.9-0.8,1.9-1.9
					C117.2,101.2,116.4,100.3,115.3,100.3 M115.3,105.3c-1.7,0-3.1-1.4-3.1-3.1c0-1.7,1.4-3.1,3.1-3.1s3.1,1.4,3.1,3.1
					C118.5,103.9,117.1,105.3,115.3,105.3" />
                    <path id="Fill-337" class="st0" d="M337.3,44.8c-1,0-1.9,0.8-1.9,1.9c0,1,0.8,1.9,1.9,1.9c1,0,1.9-0.8,1.9-1.9
					C339.2,45.7,338.4,44.8,337.3,44.8 M337.3,49.8c-1.7,0-3.1-1.4-3.1-3.1c0-1.7,1.4-3.1,3.1-3.1s3.1,1.4,3.1,3.1
					C340.5,48.4,339.1,49.8,337.3,49.8" />
                    <path id="Fill-339" class="st0" d="M42.5,203H22c-0.4,0-0.8-0.3-0.8-0.8s0.3-0.8,0.8-0.8h20.5c0.4,0,0.8,0.3,0.8,0.8
					S42.9,203,42.5,203" />
                    <path id="Fill-341" class="st0" d="M42.5,209.5h-5c-0.4,0-0.8-0.3-0.8-0.8s0.3-0.8,0.8-0.8h5c0.4,0,0.8,0.3,0.8,0.8
					S42.9,209.5,42.5,209.5" />
                    <path id="Fill-343" class="st0" d="M18,199.1c-1.7,0-3.1,1.4-3.1,3.1c0,1.7,1.4,3.1,3.1,3.1c1.7,0,3.1-1.4,3.1-3.1
					C21.1,200.5,19.7,199.1,18,199.1 M18,206.6c-2.4,0-4.4-2-4.4-4.4c0-2.4,2-4.4,4.4-4.4s4.4,2,4.4,4.4
					C22.4,204.7,20.4,206.6,18,206.6" />
                    <path id="Fill-345" class="st0" d="M9.4,255c-1.7,0-3.1,1.4-3.1,3.1c0,1.7,1.4,3.1,3.1,3.1s3.1-1.4,3.1-3.1
					C12.5,256.4,11.2,255,9.4,255 M9.4,262.5c-2.4,0-4.4-2-4.4-4.4c0-2.4,2-4.4,4.4-4.4s4.4,2,4.4,4.4
					C13.8,260.5,11.8,262.5,9.4,262.5" />
                    <path id="Fill-347" class="st0" d="M336,209.5h-22c-0.4,0-0.8-0.3-0.8-0.8s0.3-0.8,0.8-0.8h22c0.4,0,0.8,0.3,0.8,0.8
					S336.4,209.5,336,209.5" />
                    <path id="Fill-349" class="st0" d="M338.2,207.5c-0.7,0-1.3,0.6-1.3,1.3c0,0.7,0.6,1.3,1.3,1.3c0.7,0,1.3-0.6,1.3-1.3
					C339.5,208,338.9,207.5,338.2,207.5 M338.2,211.3c-1.4,0-2.5-1.1-2.5-2.5c0-1.4,1.1-2.5,2.5-2.5c1.4,0,2.5,1.1,2.5,2.5
					C340.7,210.1,339.6,211.3,338.2,211.3" />
                    <path id="Fill-351" class="st0" d="M35.3,207.8c-0.5,0-0.9,0.4-0.9,0.9c0,0.5,0.4,0.9,0.9,0.9s0.9-0.4,0.9-0.9
					C36.2,208.2,35.8,207.8,35.3,207.8 M35.3,210.9c-1.2,0-2.2-1-2.2-2.2c0-1.2,1-2.2,2.2-2.2c1.2,0,2.2,1,2.2,2.2
					C37.4,210,36.5,210.9,35.3,210.9" />
                    <path id="Fill-353" class="st0" d="M121.8,166.3c-0.4,0-0.8-0.3-0.8-0.8v-26.3l-6.5-11.3c-0.2-0.4-0.1-0.8,0.3-1
					c0.4-0.2,0.8-0.1,1,0.3l6.7,11.6v26.7C122.5,165.9,122.2,166.3,121.8,166.3" />
                    <path id="Fill-355" class="st0" d="M112.2,118.1c-2.6,0-4.8,2.1-4.8,4.8s2.1,4.8,4.8,4.8c2.6,0,4.8-2.1,4.8-4.8
					S114.8,118.1,112.2,118.1 M112.2,128.9c-3.3,0-6-2.7-6-6s2.7-6,6-6c3.3,0,6,2.7,6,6S115.5,128.9,112.2,128.9" />
                    <path id="Fill-357" class="st0" d="M308.2,63.6c-2.6,0-4.8,2.1-4.8,4.8s2.1,4.8,4.8,4.8c2.6,0,4.8-2.1,4.8-4.8
					S310.8,63.6,308.2,63.6 M308.2,74.4c-3.3,0-6-2.7-6-6s2.7-6,6-6s6,2.7,6,6S311.5,74.4,308.2,74.4" />
                    <path id="Fill-359" class="st0" d="M207.8,1.4c-1.6,0-2.9,1.3-2.9,2.9s1.3,2.9,2.9,2.9s2.9-1.3,2.9-2.9S209.4,1.4,207.8,1.4
					 M207.8,8.5c-2.3,0-4.2-1.9-4.2-4.2s1.9-4.2,4.2-4.2s4.2,1.9,4.2,4.2S210.1,8.5,207.8,8.5" />
                    <path id="Fill-361" class="st0" d="M88.3,166.3c-0.4,0-0.8-0.3-0.8-0.8V144l-14.5-25V33.8l10.6-18.1c0.2-0.4,0.7-0.5,1-0.3
					c0.4,0.2,0.5,0.7,0.3,1L74.5,34.3v84.3l14.5,25v22C89,165.9,88.7,166.3,88.3,166.3" />
                    <path id="Fill-363" class="st0" d="M86.4,9.3c-1.6,0-2.9,1.3-2.9,2.9c0,1.6,1.3,2.9,2.9,2.9c1.6,0,2.9-1.3,2.9-2.9
					C89.4,10.7,88,9.3,86.4,9.3 M86.4,16.5c-2.3,0-4.2-1.9-4.2-4.2s1.9-4.2,4.2-4.2s4.2,1.9,4.2,4.2S88.7,16.5,86.4,16.5" />
                    <path id="Fill-365" class="st0" d="M148.8,166.8c-0.4,0-0.8-0.3-0.8-0.8V63.8l-8.2-13.9c-0.2-0.4-0.1-0.8,0.3-1
					c0.4-0.2,0.8-0.1,1,0.3l8.4,14.3V166C149.5,166.4,149.2,166.8,148.8,166.8" />
                    <path id="Fill-367" class="st0" d="M195.3,166.3c-0.4,0-0.8-0.3-0.8-0.8v-104l0.1-0.2L207,40.2V8.5c0-0.4,0.3-0.8,0.8-0.8
					s0.8,0.3,0.8,0.8v32.1l-0.1,0.2L196,62v103.5C196,165.9,195.7,166.3,195.3,166.3" />
                    <path id="Fill-369" class="st0" d="M138.7,43.7c-1.4,0-2.5,1.1-2.5,2.5c0,1.4,1.1,2.5,2.5,2.5c1.4,0,2.5-1.1,2.5-2.5
					C141.2,44.9,140.1,43.7,138.7,43.7 M138.7,50.1c-2.1,0-3.8-1.7-3.8-3.8s1.7-3.8,3.8-3.8c2.1,0,3.8,1.7,3.8,3.8
					S140.8,50.1,138.7,50.1" />
                    <path id="Fill-371" class="st0" d="M25,464c-0.1,0-0.2,0-0.4-0.1c-0.4-0.2-0.5-0.7-0.3-1L48,419.3v-66l33-56.8v-17
					c0-0.4,0.3-0.8,0.8-0.8s0.8,0.3,0.8,0.8V297l-33,56.8v65.9l-23.8,43.9C25.5,463.9,25.3,464,25,464" />
                    <path id="Fill-373" class="st0" d="M62.8,491.8c-0.4,0-0.8-0.3-0.8-0.8V358.9l0.1-0.2L94.5,303v-23.5c0-0.4,0.3-0.8,0.8-0.8
					s0.8,0.3,0.8,0.8v24l-0.1,0.2l-32.4,55.6V491C63.5,491.4,63.2,491.8,62.8,491.8" />
                    <path id="Fill-375" class="st0" d="M295.3,489.2c-3,0-5.4,2.4-5.4,5.4c0,3,2.4,5.4,5.4,5.4s5.4-2.4,5.4-5.4
					C300.7,491.6,298.2,489.2,295.3,489.2 M295.3,501.3c-3.7,0-6.7-3-6.7-6.7c0-3.7,3-6.7,6.7-6.7s6.7,3,6.7,6.7
					C301.9,498.3,298.9,501.3,295.3,501.3" />
                    <path id="Fill-377" class="st0" d="M334.3,467.5c-1.6,0-2.9,1.3-2.9,2.9s1.3,2.9,2.9,2.9s2.9-1.3,2.9-2.9
					S335.8,467.5,334.3,467.5 M334.3,474.5c-2.3,0-4.1-1.8-4.1-4.1c0-2.3,1.8-4.1,4.1-4.1s4.1,1.8,4.1,4.1
					C338.4,472.6,336.5,474.5,334.3,474.5" />
                    <path id="Fill-379" class="st0" d="M313.9,436.3c-0.3,0-0.5-0.1-0.7-0.4L302,415.7v-54.9L261.5,291v-11.5c0-0.4,0.3-0.8,0.8-0.8
					s0.8,0.3,0.8,0.8v11l40.5,69.8v55l11,19.9c0.2,0.4,0.1,0.8-0.3,1C314.1,436.3,314,436.3,313.9,436.3" />
                    <path id="Fill-381" class="st0" d="M295.3,488.8c-0.4,0-0.8-0.3-0.8-0.8V379.3l-46-79.3v-20.5c0-0.4,0.3-0.8,0.8-0.8
					s0.8,0.3,0.8,0.8v20l46,79.3V488C296,488.4,295.7,488.8,295.3,488.8" />
                    <path id="Fill-383" class="st0" d="M326,367.4c-0.3,0-0.5-0.1-0.6-0.4l-36.9-63.6v-24c0-0.4,0.3-0.8,0.8-0.8s0.8,0.3,0.8,0.8
					V303l36.6,63.2c0.2,0.4,0.1,0.8-0.3,1C326.3,367.4,326.1,367.4,326,367.4" />
                    <path id="Fill-385" class="st0" d="M160.3,336.5c-1.2,0-2.2,1-2.2,2.2c0,1.2,1,2.2,2.2,2.2s2.2-1,2.2-2.2
					C162.5,337.5,161.5,336.5,160.3,336.5 M160.3,342.2c-1.9,0-3.5-1.6-3.5-3.5c0-1.9,1.6-3.5,3.5-3.5s3.5,1.6,3.5,3.5
					C163.7,340.7,162.2,342.2,160.3,342.2" />
                    <path id="Fill-387" class="st0" d="M175.8,309c-1.2,0-2.2,1-2.2,2.2c0,1.2,1,2.2,2.2,2.2s2.2-1,2.2-2.2
					C178,310,177,309,175.8,309 M175.8,314.7c-1.9,0-3.5-1.6-3.5-3.5c0-1.9,1.6-3.5,3.5-3.5s3.5,1.6,3.5,3.5
					C179.2,313.2,177.7,314.7,175.8,314.7" />
                    <path id="Fill-389" class="st0" d="M342.8,184.6c-1.2,0-2.2,1-2.2,2.2c0,1.2,1,2.2,2.2,2.2c1.2,0,2.2-1,2.2-2.2
					C345,185.6,344,184.6,342.8,184.6 M342.8,190.3c-1.9,0-3.5-1.6-3.5-3.5c0-1.9,1.6-3.5,3.5-3.5c1.9,0,3.5,1.6,3.5,3.5
					C346.3,188.8,344.7,190.3,342.8,190.3" />
                    <path id="Fill-391" class="st0" d="M185.3,340.7c-1.5,0-2.6,1.2-2.6,2.6s1.2,2.6,2.6,2.6s2.6-1.2,2.6-2.6
					S186.7,340.7,185.3,340.7 M185.3,347.2c-2.2,0-3.9-1.7-3.9-3.9c0-2.2,1.7-3.9,3.9-3.9s3.9,1.7,3.9,3.9
					C189.1,345.5,187.4,347.2,185.3,347.2" />
                    <path id="Fill-393" class="st0" d="M183.1,358.8c-1.5,0-2.7,1.2-2.7,2.6s1.2,2.6,2.7,2.6s2.6-1.2,2.6-2.6
					S184.6,358.8,183.1,358.8 M183.1,365.4c-2.2,0-3.9-1.7-3.9-3.9c0-2.1,1.7-3.9,3.9-3.9s3.9,1.7,3.9,3.9
					C187,363.6,185.3,365.4,183.1,365.4" />
                    <path id="Fill-395" class="st0" d="M181.2,359.3c-0.3,0-0.5-0.1-0.7-0.4l-6.6-11.4v-17.7l0.1-0.2l13.9-24v-26.2
					c0-0.4,0.3-0.8,0.8-0.8c0.4,0,0.8,0.3,0.8,0.8v26.6l-0.1,0.2l-13.9,24v16.9l6.4,11.1c0.2,0.4,0.1,0.8-0.3,1
					C181.5,359.3,181.4,359.3,181.2,359.3" />
                    <path id="Fill-397" class="st0" d="M185.3,340.3c-0.4,0-0.8-0.3-0.8-0.8v-12l10-17.4v-30.7c0-0.4,0.3-0.8,0.8-0.8
					s0.8,0.3,0.8,0.8v31.1l-10,17.4v11.6C186,339.9,185.7,340.3,185.3,340.3" />
                    <path id="Fill-399" class="st0" d="M96,348.8c-2.2,0-4.1,1.8-4.1,4.1s1.8,4.1,4.1,4.1c2.2,0,4.1-1.8,4.1-4.1
					S98.3,348.8,96,348.8 M96,358.2c-2.9,0-5.3-2.4-5.3-5.3s2.4-5.3,5.3-5.3s5.3,2.4,5.3,5.3S99,358.2,96,358.2" />
                    <path id="Fill-401" class="st0" d="M316.7,436.2c-3.1,0-5.7,2.5-5.7,5.7s2.5,5.7,5.7,5.7c3.1,0,5.7-2.5,5.7-5.7
					S319.9,436.2,316.7,436.2 M316.7,448.8c-3.8,0-6.9-3.1-6.9-6.9c0-3.8,3.1-6.9,6.9-6.9c3.8,0,6.9,3.1,6.9,6.9
					C323.7,445.7,320.6,448.8,316.7,448.8" />
                    <path id="Fill-403" class="st0" d="M208.8,294.8c-0.4,0-0.8-0.3-0.8-0.8v-14.5c0-0.4,0.3-0.8,0.8-0.8s0.8,0.3,0.8,0.8V294
					C209.5,294.4,209.2,294.8,208.8,294.8" />
                    <path id="Fill-405" class="st0" d="M264.5,342.3c-0.3,0-0.5-0.1-0.6-0.4L242,304.1v-24.6c0-0.4,0.3-0.8,0.8-0.8s0.8,0.3,0.8,0.8
					v24.2l21.6,37.5c0.2,0.4,0.1,0.8-0.3,1C264.8,342.2,264.6,342.3,264.5,342.3" />
                    <path id="Fill-407" class="st0" d="M132,308.8c-2,0-3.7,1.6-3.7,3.7c0,2,1.6,3.7,3.7,3.7c2,0,3.7-1.6,3.7-3.7
					C135.7,310.5,134.1,308.8,132,308.8 M132,317.4c-2.7,0-4.9-2.2-4.9-4.9c0-2.7,2.2-4.9,4.9-4.9c2.7,0,4.9,2.2,4.9,4.9
					C137,315.2,134.7,317.4,132,317.4" />
                    <path id="Fill-409" class="st0" d="M208.8,295.4c-1.7,0-3.1,1.4-3.1,3.1c0,1.7,1.4,3.1,3.1,3.1s3.1-1.4,3.1-3.1
					C211.8,296.8,210.5,295.4,208.8,295.4 M208.8,302.8c-2.4,0-4.3-1.9-4.3-4.3c0-2.4,1.9-4.3,4.3-4.3s4.3,1.9,4.3,4.3
					C213.1,300.9,211.1,302.8,208.8,302.8" />
                    <path id="Fill-411" class="st0" d="M134,309.3c-0.1,0-0.3,0-0.4-0.1c-0.4-0.2-0.5-0.7-0.3-1l7.6-13v-15.7c0-0.4,0.3-0.8,0.8-0.8
					s0.8,0.3,0.8,0.8v16.1l-7.9,13.3C134.5,309.1,134.3,309.3,134,309.3" />
                    <path id="Fill-413" class="st0" d="M82,343.8c-0.1,0-0.3,0-0.4-0.1c-0.4-0.2-0.5-0.7-0.3-1l26.6-46v-17.2c0-0.4,0.3-0.8,0.8-0.8
					s0.8,0.3,0.8,0.8v17.6l-26.9,46.3C82.5,343.6,82.3,343.8,82,343.8" />
                    <path id="Fill-415" class="st0" d="M287.5,350.8c-0.3,0-0.5-0.1-0.6-0.4L255,295.6v-16.1c0-0.4,0.3-0.8,0.8-0.8s0.8,0.3,0.8,0.8
					v15.7l31.6,54.5c0.2,0.4,0.1,0.8-0.3,1C287.8,350.7,287.6,350.8,287.5,350.8" />
                    <path id="Fill-417" class="st0" d="M269.3,166.3c-0.4,0-0.8-0.3-0.8-0.8v-41l7.5-12.9v-31l0.1-0.2l15-25.9
					c0.2-0.4,0.7-0.5,1-0.3c0.4,0.2,0.5,0.7,0.3,1L277.5,81v31L270,125v40.5C270,165.9,269.7,166.3,269.3,166.3" />
                    <path id="Fill-419" class="st0" d="M193.4,25.1c-1.2,0-2.2,1-2.2,2.2c0,1.2,1,2.2,2.2,2.2c1.2,0,2.2-1,2.2-2.2
					C195.7,26.1,194.7,25.1,193.4,25.1 M193.4,30.8c-1.9,0-3.5-1.6-3.5-3.5s1.6-3.5,3.5-3.5c1.9,0,3.5,1.6,3.5,3.5
					S195.4,30.8,193.4,30.8" />
                    <path id="Fill-421" class="st0" d="M162.3,166.8c-0.4,0-0.8-0.3-0.8-0.8v-56.9l0.1-0.2l9.9-18.7V63.2l19.4-33.5
					c0.2-0.4,0.7-0.5,1-0.3c0.4,0.2,0.5,0.7,0.3,1L173,63.6v26.9l-0.1,0.2l-9.9,18.7V166C163,166.4,162.7,166.8,162.3,166.8" />
                    <path id="Fill-423" class="st0" d="M275.8,166.3c-0.4,0-0.8-0.3-0.8-0.8V134l20-34.4v-9.9l9.6-16.5c0.2-0.4,0.7-0.5,1-0.3
					c0.4,0.2,0.5,0.7,0.3,1l-9.4,16.1v9.9l-20,34.4v31C276.5,165.9,276.2,166.3,275.8,166.3" />
                    <path id="Fill-425" class="st0" d="M282.8,166.3c-0.4,0-0.8-0.3-0.8-0.8V136l0.1-0.2l28-48.4c0.2-0.4,0.7-0.5,1-0.3
					c0.4,0.2,0.5,0.7,0.3,1l-27.9,48.2v29C283.5,165.9,283.2,166.3,282.8,166.3" />
                    <path id="Fill-427" class="st0" d="M184.4,80.6c-1.2,0-2.2,1-2.2,2.2c0,1.2,1,2.2,2.2,2.2c1.2,0,2.2-1,2.2-2.2
					C186.7,81.6,185.7,80.6,184.4,80.6 M184.4,86.3c-1.9,0-3.5-1.6-3.5-3.5s1.6-3.5,3.5-3.5c1.9,0,3.5,1.6,3.5,3.5
					S186.4,86.3,184.4,86.3" />
                    <path id="Fill-429" class="st0" d="M168.8,166.8c-0.4,0-0.8-0.3-0.8-0.8v-53.9l14.3-26.9c0.2-0.4,0.7-0.5,1-0.3
					c0.4,0.2,0.5,0.6,0.3,1l-14.2,26.6V166C169.5,166.4,169.2,166.8,168.8,166.8" />
                    <path id="Fill-431" class="st0" d="M345.5,237.9c-2.4,0-4.3,1.9-4.3,4.3c0,2.4,1.9,4.3,4.3,4.3s4.3-1.9,4.3-4.3
					C349.8,239.9,347.9,237.9,345.5,237.9 M345.5,247.8c-3.1,0-5.6-2.5-5.6-5.6c0-3.1,2.5-5.6,5.6-5.6c3.1,0,5.6,2.5,5.6,5.6
					C351.1,245.3,348.5,247.8,345.5,247.8" />
                    <path id="Fill-433" class="st0" d="M341.8,313.9c-2.4,0-4.3,1.9-4.3,4.3c0,2.4,1.9,4.3,4.3,4.3s4.3-1.9,4.3-4.3
					C346.1,315.9,344.1,313.9,341.8,313.9 M341.8,323.8c-3.1,0-5.6-2.5-5.6-5.6c0-3.1,2.5-5.6,5.6-5.6s5.6,2.5,5.6,5.6
					C347.3,321.3,344.8,323.8,341.8,323.8" />
                    <path id="Fill-435" class="st0" d="M175.8,308.8c-0.4,0-0.8-0.3-0.8-0.8v-28.5c0-0.4,0.3-0.8,0.8-0.8s0.8,0.3,0.8,0.8V308
					C176.5,308.4,176.2,308.8,175.8,308.8" />
                    <path id="Fill-437" class="st0" d="M121.8,300.5c-1.2,0-2.2,1-2.2,2.2c0,1.2,1,2.2,2.2,2.2s2.2-1,2.2-2.2
					C124,301.5,123,300.5,121.8,300.5 M121.8,306.2c-1.9,0-3.5-1.6-3.5-3.5c0-1.9,1.6-3.5,3.5-3.5s3.5,1.6,3.5,3.5
					C125.2,304.7,123.7,306.2,121.8,306.2" />
                    <path id="Fill-439" class="st0" d="M121.8,300.3c-0.4,0-0.8-0.3-0.8-0.8v-20c0-0.4,0.3-0.8,0.8-0.8s0.8,0.3,0.8,0.8v20
					C122.5,299.9,122.2,300.3,121.8,300.3" />
                    <path id="Fill-441" class="st0" d="M275.8,291.3c-1.1,0-2.1,0.9-2.1,2.1s0.9,2.1,2.1,2.1s2.1-0.9,2.1-2.1
					S276.9,291.3,275.8,291.3 M275.8,296.7c-1.8,0-3.3-1.5-3.3-3.3c0-1.8,1.5-3.3,3.3-3.3s3.3,1.5,3.3,3.3
					C279.1,295.2,277.6,296.7,275.8,296.7" />
                    <path id="Fill-443" class="st0" d="M275.8,290.8c-0.4,0-0.8-0.3-0.8-0.8v-10.5c0-0.4,0.3-0.8,0.8-0.8s0.8,0.3,0.8,0.8V290
					C276.5,290.4,276.2,290.8,275.8,290.8" />
                    <path id="Fill-445" class="st0" d="M181.8,292.8c-1.1,0-2.1,0.9-2.1,2.1s0.9,2.1,2.1,2.1s2.1-0.9,2.1-2.1
					S182.9,292.8,181.8,292.8 M181.8,298.2c-1.8,0-3.3-1.5-3.3-3.3c0-1.8,1.5-3.3,3.3-3.3s3.3,1.5,3.3,3.3
					C185.1,296.7,183.6,298.2,181.8,298.2" />
                    <path id="Fill-447" class="st0" d="M181.8,292.3c-0.4,0-0.8-0.3-0.8-0.8v-12c0-0.4,0.3-0.8,0.8-0.8s0.8,0.3,0.8,0.8v12
					C182.5,291.9,182.2,292.3,181.8,292.3" />
                    <path id="Fill-449" class="st0" d="M229.3,301.3c-1.1,0-2.1,0.9-2.1,2.1s0.9,2.1,2.1,2.1s2.1-0.9,2.1-2.1
					S230.4,301.3,229.3,301.3 M229.3,306.7c-1.8,0-3.3-1.5-3.3-3.3c0-1.8,1.5-3.3,3.3-3.3s3.3,1.5,3.3,3.3
					C232.6,305.2,231.1,306.7,229.3,306.7" />
                    <path id="Fill-451" class="st0" d="M229.3,300.8c-0.4,0-0.8-0.3-0.8-0.8v-20.5c0-0.4,0.3-0.8,0.8-0.8s0.8,0.3,0.8,0.8V300
					C230,300.4,229.7,300.8,229.3,300.8" />
                    <path id="Fill-453" class="st0" d="M135.3,288.8c-1.1,0-2.1,0.9-2.1,2.1s0.9,2.1,2.1,2.1s2.1-0.9,2.1-2.1
					S136.4,288.8,135.3,288.8 M135.3,294.2c-1.8,0-3.3-1.5-3.3-3.3c0-1.8,1.5-3.3,3.3-3.3s3.3,1.5,3.3,3.3
					C138.6,292.7,137.1,294.2,135.3,294.2" />
                    <path id="Fill-455" class="st0" d="M80.6,343.8c-1.1,0-2.1,0.9-2.1,2.1s0.9,2.1,2.1,2.1s2.1-0.9,2.1-2.1S81.7,343.8,80.6,343.8
					 M80.6,349.2c-1.8,0-3.3-1.5-3.3-3.3c0-1.8,1.5-3.3,3.3-3.3c1.8,0,3.3,1.5,3.3,3.3C83.9,347.7,82.4,349.2,80.6,349.2" />
                    <path id="Fill-457" class="st0" d="M135.3,288.3c-0.4,0-0.8-0.3-0.8-0.8v-8c0-0.4,0.3-0.8,0.8-0.8s0.8,0.3,0.8,0.8v8
					C136,287.9,135.7,288.3,135.3,288.3" />
                    <path id="Fill-459" class="st0" d="M88.3,288.8c-1.1,0-2.1,0.9-2.1,2.1s0.9,2.1,2.1,2.1s2.1-0.9,2.1-2.1S89.4,288.8,88.3,288.8
					 M88.3,294.2c-1.8,0-3.3-1.5-3.3-3.3c0-1.8,1.5-3.3,3.3-3.3s3.3,1.5,3.3,3.3C91.6,292.7,90.1,294.2,88.3,294.2" />
                    <path id="Fill-461" class="st0" d="M88.3,288.3c-0.4,0-0.8-0.3-0.8-0.8v-8c0-0.4,0.3-0.8,0.8-0.8s0.8,0.3,0.8,0.8v8
					C89,287.9,88.7,288.3,88.3,288.3" />
                    <path id="Fill-463" class="st0" d="M323.5,223H314c-0.4,0-0.8-0.3-0.8-0.8s0.3-0.8,0.8-0.8h9.5c0.4,0,0.8,0.3,0.8,0.8
					S323.9,223,323.5,223" />
                    <path id="Fill-465" class="st0" d="M325.6,221.3c-0.5,0-0.9,0.4-0.9,0.9c0,0.5,0.4,0.9,0.9,0.9s0.9-0.4,0.9-0.9
					C326.6,221.7,326.2,221.3,325.6,221.3 M325.6,224.4c-1.2,0-2.2-1-2.2-2.2c0-1.2,1-2.2,2.2-2.2c1.2,0,2.2,1,2.2,2.2
					C327.8,223.5,326.9,224.4,325.6,224.4" />
                    <path id="Fill-467" class="st0" d="M108.1,39.5c-12.4,0-22.5,10.1-22.5,22.5c0,12.4,10.1,22.5,22.5,22.5s22.5-10.1,22.5-22.5
					C130.6,49.5,120.5,39.5,108.1,39.5 M108.1,85.6c-13.1,0-23.7-10.6-23.7-23.7c0-13.1,10.6-23.7,23.7-23.7s23.7,10.6,23.7,23.7
					C131.8,75,121.2,85.6,108.1,85.6" />
                    <path id="Fill-471" class="st0" d="M301.6,10c-12.6,0-22.9,10.3-22.9,22.9c0,12.6,10.3,22.9,22.9,22.9s22.9-10.3,22.9-22.9
					C324.5,20.3,314.2,10,301.6,10 M301.6,57.1c-13.3,0-24.2-10.8-24.2-24.2c0-13.3,10.8-24.2,24.2-24.2c13.3,0,24.2,10.8,24.2,24.2
					C325.8,46.3,314.9,57.1,301.6,57.1" />
                    <path id="Fill-475" class="st0" d="M41.6,13.1c-8,0-14.6,6.5-14.6,14.6s6.5,14.6,14.6,14.6s14.6-6.5,14.6-14.6
					S49.7,13.1,41.6,13.1 M41.6,43.5c-8.7,0-15.8-7.1-15.8-15.8c0-8.7,7.1-15.8,15.8-15.8s15.8,7.1,15.8,15.8
					C57.5,36.4,50.4,43.5,41.6,43.5" />
                    <path id="Fill-479" class="st0" d="M215.8,311.6c-10.7,0-19.5,8.7-19.5,19.5c0,10.7,8.7,19.5,19.5,19.5s19.5-8.7,19.5-19.5
					C235.2,320.3,226.5,311.6,215.8,311.6 M215.8,351.7c-11.4,0-20.7-9.3-20.7-20.7c0-11.4,9.3-20.7,20.7-20.7s20.7,9.3,20.7,20.7
					C236.5,342.4,227.2,351.7,215.8,351.7" />
                    <path id="Fill-483" class="st0" d="M155.8,3.4c-9.4,0-17.1,7.7-17.1,17.1c0,9.4,7.7,17.1,17.1,17.1s17.1-7.7,17.1-17.1
					C172.8,11.1,165.2,3.4,155.8,3.4 M155.8,38.9c-10.1,0-18.3-8.2-18.3-18.3c0-10.1,8.2-18.3,18.3-18.3s18.3,8.2,18.3,18.3
					C174.1,30.6,165.9,38.9,155.8,38.9" />
                    <path id="Fill-487" class="st0" d="M333.8,365.5c-8,0-14.6,6.5-14.6,14.6c0,8,6.5,14.6,14.6,14.6c8,0,14.6-6.5,14.6-14.6
					C348.4,372,341.8,365.5,333.8,365.5 M333.8,395.9c-8.7,0-15.8-7.1-15.8-15.8c0-8.7,7.1-15.8,15.8-15.8s15.8,7.1,15.8,15.8
					C349.6,388.8,342.5,395.9,333.8,395.9" />
                    <path id="Fill-491" class="st0" d="M126.4,324.3c-9.4,0-17.1,7.7-17.1,17.1c0,9.4,7.7,17.1,17.1,17.1s17.1-7.7,17.1-17.1
					C143.5,332,135.8,324.3,126.4,324.3 M126.4,359.7c-10.1,0-18.3-8.2-18.3-18.3c0-10.1,8.2-18.3,18.3-18.3
					c10.1,0,18.3,8.2,18.3,18.3C144.7,351.5,136.5,359.7,126.4,359.7" />
                    <path id="Fill-495" class="st0" d="M215.8,57.8c-6.6,0-12,5.4-12,12c0,6.6,5.4,12,12,12s12-5.4,12-12
					C227.8,63.2,222.4,57.8,215.8,57.8 M215.8,83.1c-7.3,0-13.3-6-13.3-13.3s6-13.3,13.3-13.3s13.3,6,13.3,13.3
					S223.1,83.1,215.8,83.1" />
                    <path id="Fill-499" class="st0" d="M21.2,376.6c-6.6,0-12,5.4-12,12c0,6.6,5.4,12,12,12s12-5.4,12-12
					C33.3,382,27.9,376.6,21.2,376.6 M21.2,401.9c-7.3,0-13.3-6-13.3-13.3c0-7.3,6-13.3,13.3-13.3s13.3,6,13.3,13.3
					C34.5,395.9,28.6,401.9,21.2,401.9" />
                    <path id="Fill-503" class="st0" d="M342.6,216.5H314c-0.4,0-0.8-0.3-0.8-0.8s0.3-0.8,0.8-0.8h27.7l7.1-12.2
					c0.2-0.4,0.7-0.5,1-0.3c0.4,0.2,0.5,0.7,0.3,1L342.6,216.5z" />
                    <path id="Fill-505" class="st0" d="M334.6,203H314c-0.4,0-0.8-0.3-0.8-0.8s0.3-0.8,0.8-0.8h19.7l7.1-12.2c0.2-0.4,0.7-0.5,1-0.3
					c0.4,0.2,0.5,0.7,0.3,1L334.6,203z" />
                    <path id="Fill-507" class="st0" d="M349.3,271.7c-1.2,0-2.2,1-2.2,2.2c0,1.2,1,2.2,2.2,2.2c1.2,0,2.2-1,2.2-2.2
					C351.5,272.7,350.5,271.7,349.3,271.7 M349.3,277.4c-1.9,0-3.5-1.6-3.5-3.5s1.6-3.5,3.5-3.5c1.9,0,3.5,1.6,3.5,3.5
					S351.2,277.4,349.3,277.4" />
                    <path id="Fill-509" class="st0" d="M348,271.6c-0.3,0-0.5-0.1-0.6-0.4l-12.6-21.7H314c-0.4,0-0.8-0.3-0.8-0.8
					c0-0.4,0.3-0.8,0.8-0.8h21.6l13,22.5c0.2,0.4,0.1,0.8-0.3,1C348.2,271.6,348.1,271.6,348,271.6" />
                </g>
            </g>
        </g>
    </g>
</svg>
