<?xml version="1.0" encoding="utf-8"?>
<svg width="16px" height="14px" viewBox="0 0 16 14" xmlns="http://www.w3.org/2000/svg">
  <title>icon-deposit</title>
  <desc>Created with Sketch.</desc>
  <g id="Symbols" stroke="none" stroke-width="1" fill="none" fill-rule="evenodd">
    <g id="icon-deposit" fill="#00a45b">
      <path d="M6.55,4.3788 C6.58,4.3488 6.615,4.3288 6.646,4.2998 C6.128,4.1188 5.58,3.9998 5,3.9998 C2.238,3.9998 0,6.2388 0,8.9998 C0,11.7618 2.238,13.9998 5,13.9998 C6.878,13.9998 8.495,12.9518 9.349,11.4208 L6.544,8.6148 C5.373,7.4438 5.379,5.5498 6.55,4.3788 Z M15.0353,5.793 C14.6423,5.4 14.0143,5.4 13.6273,5.786 L12.4993,6.914 L12.4993,1.497 C12.4993,0.953 12.0523,0.5 11.4993,0.5 C10.9433,0.5 10.4993,0.947 10.4993,1.497 L10.4993,6.914 L9.3723,5.786 C8.9903,5.405 8.3543,5.402 7.9643,5.793 C7.5713,6.186 7.5713,6.814 7.9573,7.201 L10.7993,10.042 C10.9893,10.232 11.2413,10.328 11.4953,10.328 C11.7563,10.331 12.0083,10.235 12.2003,10.042 L15.0423,7.201 C15.4233,6.819 15.4263,6.184 15.0353,5.793 Z" id="Combined-Shape"/>
    </g>
  </g>
</svg>