<?xml version="1.0" encoding="UTF-8" standalone="no"?>
<svg width="12px" height="9px" viewBox="0 0 12 9" version="1.1" xmlns="http://www.w3.org/2000/svg" xmlns:xlink="http://www.w3.org/1999/xlink">
    <!-- Generator: Sketch 39.1 (31720) - http://www.bohemiancoding.com/sketch -->
    <title>icon-socket-status-connected</title>
    <desc>Created with Sketch.</desc>
    <defs></defs>
    <g id="Symbols" stroke="none" stroke-width="1" fill="none" fill-rule="evenodd">
        <g id="icon-socket-status-connected" fill="#00A45B">
            <path d="M6.24017511,6.72 C5.77613508,6.72 5.4,7.09757134 5.4,7.56087482 C5.4,8.0241783 5.77613508,8.4 6.24017511,8.4 C6.70386492,8.4 7.08,8.0241783 7.08,7.56087482 C7.08,7.09757134 6.70386492,6.72 6.24017511,6.72 L6.24017511,6.72 Z M11.871913,2.74338601 C10.4056993,1.00045918 8.26551113,0 6.00020853,0 C3.73490594,0 1.59426119,1.00045918 0.128047397,2.74338601 C-0.0664736484,2.97535007 -0.0358799629,3.32101306 0.196084101,3.5155341 C0.297454223,3.60137907 0.422568698,3.64384494 0.547226551,3.64384494 C0.704304578,3.64384494 0.859556117,3.57809134 0.966405705,3.44978051 C2.22394317,1.95297303 4.05773781,1.09497997 6.00020853,1.09497997 C7.94085277,1.09497997 9.77601728,1.95297303 11.0335547,3.44795402 C11.1404043,3.57809134 11.2956559,3.64384494 11.4527339,3.64384494 C11.5773917,3.64384494 11.7025062,3.60137907 11.804333,3.5155341 C12.0358404,3.32101306 12.0664341,2.97535007 11.871913,2.74338601 L11.871913,2.74338601 Z M6.00020853,2.19224305 C4.38239618,2.19224305 2.85362514,2.90548688 1.8065905,4.15069555 C1.61206946,4.38265961 1.64083665,4.72832259 1.87280072,4.92284364 C1.97599733,5.00868861 2.1011118,5.05115447 2.22576966,5.05115447 C2.3810212,5.05115447 2.53627273,4.98540088 2.64494881,4.85709005 C3.48330712,3.85982722 4.70522805,3.28722302 6.00020853,3.28722302 C7.29518901,3.28722302 8.51665332,3.85982722 9.35501163,4.85709005 C9.46414433,4.98540088 9.61893925,5.05115447 9.77419079,5.05115447 C9.89930526,5.05115447 10.0239631,5.0105151 10.1276163,4.92284364 C10.3595804,4.72832259 10.3897175,4.38265961 10.1933699,4.15069555 C9.1463353,2.90548688 7.61802089,2.19224305 6.00020853,2.19224305 L6.00020853,2.19224305 Z M6.00020853,4.3844861 C5.02805993,4.3844861 4.11116261,4.81234107 3.48330712,5.55983157 C3.28878607,5.78996914 3.31937976,6.13563213 3.5508872,6.33015317 C3.65271395,6.41782463 3.7773718,6.45892063 3.90248627,6.45892063 C4.0595643,6.45892063 4.21435922,6.39271041 4.32349192,6.26439958 C4.74084458,5.76485493 5.35271829,5.47946607 6.00020853,5.47946607 C6.64769877,5.47946607 7.25911586,5.76485493 7.67646853,6.26439958 C7.78560123,6.39271041 7.94085277,6.45892063 8.09747417,6.45892063 C8.22258865,6.45892063 8.3472465,6.41782463 8.44907324,6.33015317 C8.68103731,6.13563213 8.71117437,5.78996914 8.51665332,5.55983157 C7.88879784,4.81234107 6.97235714,4.3844861 6.00020853,4.3844861 L6.00020853,4.3844861 Z" id="Icon-Socket-Status"></path>
        </g>
    </g>
</svg>