<?xml version="1.0" encoding="UTF-8" standalone="no"?>
<svg width="30px" height="26px" viewBox="0 0 15 14" version="1.1" xmlns="http://www.w3.org/2000/svg" xmlns:xlink="http://www.w3.org/1999/xlink">
    <!-- Generator: Sketch 39.1 (31720) - http://www.bohemiancoding.com/sketch -->
    <title>icon-withdraw</title>
    <desc>Created with Sketch.</desc>
    <defs></defs>
    <g id="Symbols" stroke="none" stroke-width="1" fill="none" fill-rule="evenodd">
        <g id="icon-withdraw" fill="#fff">
            <path d="M7.997,8.83126752 L7.997,6.81426752 C7.288,6.77326752 6.59,6.49226752 6.047,5.94926752 C5.511,5.41326752 5.232,4.72226752 5.187,4.01826752 C5.123,4.01626752 5.064,4.00026752 5,4.00026752 C2.239,4.00026752 0,6.23826752 0,9.00026752 C0,11.7612675 2.239,14.0002675 5,14.0002675 C6.906,14.0002675 8.544,12.9202675 9.387,11.3512675 C8.554,10.8182675 7.997,9.88926752 7.997,8.83126752 Z M11.997,3.41406752 L13.125,4.54206752 C13.507,4.92406752 14.142,4.92606752 14.533,4.53506752 C14.926,4.14206752 14.926,3.51506752 14.539,3.12806752 L11.698,0.286067517 C11.508,0.0960675169 11.255,6.75168845e-05 11.001,6.75168845e-05 C10.741,-0.00293248312 10.489,0.0940675169 10.296,0.286067517 L7.455,3.12806752 C7.073,3.50906752 7.071,4.14506752 7.461,4.53506752 C7.855,4.92906752 8.482,4.92906752 8.869,4.54206752 L9.997,3.41406752 L9.997,8.83106752 C9.997,9.37506752 10.445,9.82806752 10.997,9.82806752 C11.553,9.82806752 11.997,9.38206752 11.997,8.83106752 L11.997,3.41406752 Z" id="Combined-Shape"></path>
        </g>
    </g>
</svg>