<svg xmlns="http://www.w3.org/2000/svg" width="467" height="300" viewBox="0 0 467 300" xmlns:xlink="http://www.w3.org/1999/xlink">
  <defs>
    <polygon id="a" points="16.287 8.889 2.206 8.889 2.206 .708 16.287 .708"/>
    <polygon id="c" points="1.402 1.816 182.375 1.816 182.375 180.519 1.402 180.519 1.402 1.816"/>
  </defs>
  <g fill="none" fill-rule="evenodd">
    <path fill="#48A8E2" d="M358.409333 166.115111C359.638222 166.115111 360.631556 165.119556 360.631556 163.892889L360.631556 151.492889C360.631556 150.266222 359.638222 149.270667 358.409333 149.270667 357.180444 149.270667 356.187111 150.266222 356.187111 151.492889L356.187111 163.892889C356.187111 165.119556 357.180444 166.115111 358.409333 166.115111M358.409333 141.316C359.638222 141.316 360.631556 140.320444 360.631556 139.093778L360.631556 126.693778C360.631556 125.467111 359.638222 124.471556 358.409333 124.471556 357.180444 124.471556 356.187111 125.467111 356.187111 126.693778L356.187111 139.093778C356.187111 140.320444 357.180444 141.316 358.409333 141.316M396.649333 200.608444L384.249333 200.608444C383.020444 200.608444 382.027111 201.604 382.027111 202.830667 382.027111 204.057333 383.020444 205.052889 384.249333 205.052889L396.649333 205.052889C397.878222 205.052889 398.871556 204.057333 398.871556 202.830667 398.871556 201.604 397.878222 200.608444 396.649333 200.608444M358.409333 116.515556C359.638222 116.515556 360.631556 115.52 360.631556 114.293333L360.631556 101.893333C360.631556 100.666667 359.638222 99.6711111 358.409333 99.6711111 357.180444 99.6711111 356.187111 100.666667 356.187111 101.893333L356.187111 114.293333C356.187111 115.52 357.180444 116.515556 358.409333 116.515556M371.848889 200.608444L364.891111 200.608444C363.682222 200.608444 362.528889 200.095111 361.722222 199.195111 360.902222 198.279556 359.495556 198.206222 358.584444 199.026222 357.671111 199.846222 357.595556 201.250667 358.415556 202.164 360.062222 203.999556 362.424444 205.052889 364.891111 205.052889L371.848889 205.052889C373.077778 205.052889 374.071111 204.057333 374.071111 202.830667 374.071111 201.604 373.077778 200.608444 371.848889 200.608444M360.631556 188.693333L360.631556 176.293333C360.631556 175.066667 359.638222 174.071111 358.409333 174.071111 357.180444 174.071111 356.187111 175.066667 356.187111 176.293333L356.187111 188.693333C356.187111 189.92 357.180444 190.915556 358.409333 190.915556 359.638222 190.915556 360.631556 189.92 360.631556 188.693333M407.593333 63.7215556L419.993333 63.7215556C421.222222 63.7215556 422.215556 62.726 422.215556 61.4993333 422.215556 60.2726667 421.222222 59.2771111 419.993333 59.2771111L407.593333 59.2771111C406.364444 59.2771111 405.371111 60.2726667 405.371111 61.4993333 405.371111 62.726 406.364444 63.7215556 407.593333 63.7215556M421.449556 200.608444L409.049556 200.608444C407.820667 200.608444 406.827333 201.604 406.827333 202.830667 406.827333 204.057333 407.820667 205.052889 409.049556 205.052889L421.449556 205.052889C422.678444 205.052889 423.671778 204.057333 423.671778 202.830667 423.671778 201.604 422.678444 200.608444 421.449556 200.608444M358.409333 91.7153333C359.638222 91.7153333 360.631556 90.7197778 360.631556 89.4931111L360.631556 77.0931111C360.631556 75.8664444 359.638222 74.8708889 358.409333 74.8708889 357.180444 74.8708889 356.187111 75.8664444 356.187111 77.0931111L356.187111 89.4931111C356.187111 90.7197778 357.180444 91.7153333 358.409333 91.7153333M432.393556 63.7215556L444.793556 63.7215556C446.022444 63.7215556 447.015778 62.726 447.015778 61.4993333 447.015778 60.2726667 446.022444 59.2771111 444.793556 59.2771111L432.393556 59.2771111C431.164667 59.2771111 430.171333 60.2726667 430.171333 61.4993333 430.171333 62.726 431.164667 63.7215556 432.393556 63.7215556M382.792889 63.7215556L395.192889 63.7215556C396.421778 63.7215556 397.415111 62.726 397.415111 61.4993333 397.415111 60.2726667 396.421778 59.2771111 395.192889 59.2771111L382.792889 59.2771111C381.564 59.2771111 380.570667 60.2726667 380.570667 61.4993333 380.570667 62.726 381.564 63.7215556 382.792889 63.7215556M358.144444 66.776C358.486667 66.9648889 358.857778 67.056 359.222222 67.056 360.004444 67.056 360.762222 66.6448889 361.166667 65.9137778 361.92 64.5604444 363.346667 63.7204444 364.891111 63.7204444L370.393333 63.7204444C371.62 63.7204444 372.615556 62.7271111 372.615556 61.4982222 372.615556 60.2715556 371.62 59.276 370.393333 59.276L364.891111 59.276C361.735556 59.276 358.82 60.9915556 357.282222 63.7537778 356.686667 64.8271111 357.073333 66.1782222 358.144444 66.776M462.977333 140.159333C461.748444 140.159333 460.755111 141.154889 460.755111 142.381556L460.755111 154.781556C460.755111 156.008222 461.748444 157.003778 462.977333 157.003778 464.206222 157.003778 465.199556 156.008222 465.199556 154.781556L465.199556 142.381556C465.199556 141.154889 464.206222 140.159333 462.977333 140.159333M462.977333 189.758889C461.748444 189.758889 460.755111 190.754444 460.755111 191.981111L460.755111 196.35C460.755111 198.167778 459.601778 199.785556 457.886222 200.376667 456.726222 200.776667 456.110667 202.041111 456.510667 203.201111 456.826222 204.123333 457.688444 204.701111 458.610667 204.701111 458.852889 204.701111 459.095111 204.661111 459.335111 204.578889 462.841778 203.37 465.199556 200.063333 465.199556 196.35L465.199556 191.981111C465.199556 190.754444 464.206222 189.758889 462.977333 189.758889M462.977333 115.358889C461.748444 115.358889 460.755111 116.354444 460.755111 117.581111L460.755111 129.981111C460.755111 131.207778 461.748444 132.203333 462.977333 132.203333 464.206222 132.203333 465.199556 131.207778 465.199556 129.981111L465.199556 117.581111C465.199556 116.354444 464.206222 115.358889 462.977333 115.358889M462.977333 164.959556C461.748444 164.959556 460.755111 165.955111 460.755111 167.181778L460.755111 179.581778C460.755111 180.808444 461.748444 181.804 462.977333 181.804 464.206222 181.804 465.199556 180.808444 465.199556 179.581778L465.199556 167.181778C465.199556 165.955111 464.206222 164.959556 462.977333 164.959556M462.977333 90.5595556C461.748444 90.5595556 460.755111 91.5551111 460.755111 92.7817778L460.755111 105.181778C460.755111 106.408444 461.748444 107.404 462.977333 107.404 464.206222 107.404 465.199556 106.408444 465.199556 105.181778L465.199556 92.7817778C465.199556 91.5551111 464.206222 90.5595556 462.977333 90.5595556M457.426222 59.3248889C456.204 59.2093333 455.112889 60.0782222 454.981778 61.3004444 454.852889 62.5204444 455.735111 63.616 456.957333 63.7448889 459.124 63.976 460.755111 65.796 460.755111 67.9826667L460.755111 80.3826667C460.755111 81.6093333 461.748444 82.6048889 462.977333 82.6048889 464.206222 82.6048889 465.199556 81.6093333 465.199556 80.3826667L465.199556 67.9826667C465.199556 63.5182222 461.857333 59.796 457.426222 59.3248889M446.25 200.608444L433.85 200.608444C432.621111 200.608444 431.627778 201.604 431.627778 202.830667 431.627778 204.057333 432.621111 205.052889 433.85 205.052889L446.25 205.052889C447.478889 205.052889 448.472222 204.057333 448.472222 202.830667 448.472222 201.604 447.478889 200.608444 446.25 200.608444M370.663333 81.496L370.663333 85.9804444C370.663333 87.8004444 372.138889 89.276 373.958889 89.276L447.427778 89.276C449.247778 89.276 450.723333 87.8004444 450.723333 85.9804444L450.723333 81.496C450.723333 79.676 449.247778 78.2004444 447.427778 78.2004444L373.958889 78.2004444C372.138889 78.2004444 370.663333 79.676 370.663333 81.496M448.680444 143.423111L372.707111 143.423111C371.478222 143.423111 370.484889 144.418667 370.484889 145.645333 370.484889 146.872 371.478222 147.867556 372.707111 147.867556L448.680444 147.867556C449.909333 147.867556 450.902667 146.872 450.902667 145.645333 450.902667 144.418667 449.909333 143.423111 448.680444 143.423111M448.680444 153.225778L372.707111 153.225778C371.478222 153.225778 370.484889 154.221333 370.484889 155.448 370.484889 156.674667 371.478222 157.670222 372.707111 157.670222L448.680444 157.670222C449.909333 157.670222 450.902667 156.674667 450.902667 155.448 450.902667 154.221333 449.909333 153.225778 448.680444 153.225778M448.680444 163.029333L372.707111 163.029333C371.478222 163.029333 370.484889 164.024889 370.484889 165.251556 370.484889 166.478222 371.478222 167.473778 372.707111 167.473778L448.680444 167.473778C449.909333 167.473778 450.902667 166.478222 450.902667 165.251556 450.902667 164.024889 449.909333 163.029333 448.680444 163.029333M448.680444 172.832889L372.707111 172.832889C371.478222 172.832889 370.484889 173.828444 370.484889 175.055111 370.484889 176.281778 371.478222 177.277333 372.707111 177.277333L448.680444 177.277333C449.909333 177.277333 450.902667 176.281778 450.902667 175.055111 450.902667 173.828444 449.909333 172.832889 448.680444 172.832889M448.680444 182.636444L372.707111 182.636444C371.478222 182.636444 370.484889 183.632 370.484889 184.858667 370.484889 186.085333 371.478222 187.080889 372.707111 187.080889L448.680444 187.080889C449.909333 187.080889 450.902667 186.085333 450.902667 184.858667 450.902667 183.632 449.909333 182.636444 448.680444 182.636444M447.515111 105.488L427.732889 120.703556 414.401778 108.854667C414.317333 108.779111 414.212889 108.752444 414.121778 108.692444 413.995111 108.610222 413.877333 108.523556 413.739556 108.470222 413.604 108.416889 413.468444 108.394667 413.328444 108.370222 413.188444 108.343556 413.055111 108.312444 412.915111 108.314667 412.768444 108.314667 412.632889 108.345778 412.490667 108.374667 412.355111 108.403556 412.221778 108.425778 412.088444 108.479111 411.950667 108.534667 411.830667 108.623556 411.704 108.708 411.615111 108.768 411.512889 108.796889 411.430667 108.872444L394.584 124.185778 386.141778 119.965778C386.041778 119.916889 385.935111 119.916889 385.832889 119.881333 385.681778 119.832444 385.535111 119.774667 385.375111 119.759111 385.230667 119.743556 385.092889 119.765778 384.948444 119.779111 384.808444 119.792444 384.672889 119.794667 384.535111 119.834667 384.377333 119.879111 384.241778 119.963556 384.097333 120.041333 384.004 120.092444 383.901778 120.112444 383.815111 120.176889L370.744 129.979111C369.761778 130.714667 369.564 132.108 370.299556 133.090222 370.737333 133.672444 371.404 133.979111 372.079556 133.979111 372.544 133.979111 373.010667 133.834667 373.410667 133.534667L385.381778 124.556889 393.957333 128.843556C393.984 128.854667 394.010667 128.859111 394.035111 128.870222 394.070667 128.888 394.108444 128.896889 394.144 128.910222 394.408444 129.014667 394.679556 129.076889 394.950667 129.076889L394.952889 129.076889 394.952889 129.076889C394.957333 129.076889 394.959556 129.074667 394.964 129.074667 395.201778 129.074667 395.432889 129.023556 395.657333 128.948 395.726222 128.925778 395.788444 128.892444 395.855111 128.863556 396.026222 128.785778 396.186222 128.688 396.335111 128.568 396.370667 128.539111 396.412889 128.530222 396.448444 128.499111L412.941778 113.503556 426.152889 125.248C426.261778 125.343556 426.388444 125.390222 426.508444 125.461333 426.590667 125.512444 426.664 125.570222 426.752889 125.608 427.035111 125.730222 427.328444 125.810222 427.628444 125.810222L427.630667 125.808 427.630667 125.810222C427.906222 125.810222 428.177333 125.743556 428.439556 125.639111 428.521778 125.608 428.590667 125.559111 428.670667 125.516889 428.775111 125.459111 428.888444 125.423556 428.986222 125.348L450.226222 109.010222C451.197333 108.263556 451.379556 106.868 450.630667 105.894667 449.884 104.921333 448.486222 104.739111 447.515111 105.488M79.9848889 293.74L68.8737778 293.74C67.6448889 293.74 66.6515556 294.735556 66.6515556 295.962222 66.6515556 297.188889 67.6448889 298.184444 68.8737778 298.184444L79.9848889 298.184444C81.2137778 298.184444 82.2071111 297.188889 82.2071111 295.962222 82.2071111 294.735556 81.2137778 293.74 79.9848889 293.74M57.7626667 293.74L46.6515556 293.74C45.4226667 293.74 44.4293333 294.735556 44.4293333 295.962222 44.4293333 297.188889 45.4226667 298.184444 46.6515556 298.184444L57.7626667 298.184444C58.9915556 298.184444 59.9848889 297.188889 59.9848889 295.962222 59.9848889 294.735556 58.9915556 293.74 57.7626667 293.74M4.44444444 282.059333L4.44444444 270.948222C4.44444444 269.721556 3.45111111 268.726 2.22222222 268.726.993333333 268.726 0 269.721556 0 270.948222L0 282.059333C0 283.286.993333333 284.281556 2.22222222 284.281556 3.45111111 284.281556 4.44444444 283.286 4.44444444 282.059333M13.3182222 293.74L8.70266667 293.74C7.24266667 293.74 5.90044444 293.004444 5.116 291.775556 4.45155556 290.742222 3.08044444 290.44 2.04488889 291.102222 1.01155556 291.762222.709333333 293.137778 1.36933333 294.171111 2.97822222 296.684444 5.71822222 298.184444 8.70266667 298.184444L13.3182222 298.184444C14.5471111 298.184444 15.5404444 297.188889 15.5404444 295.962222 15.5404444 294.735556 14.5471111 293.74 13.3182222 293.74M35.5404444 293.74L24.4293333 293.74C23.2004444 293.74 22.2071111 294.735556 22.2071111 295.962222 22.2071111 297.188889 23.2004444 298.184444 24.4293333 298.184444L35.5404444 298.184444C36.7693333 298.184444 37.7626667 297.188889 37.7626667 295.962222 37.7626667 294.735556 36.7693333 293.74 35.5404444 293.74M2.22222222 239.837111C3.45111111 239.837111 4.44444444 238.841556 4.44444444 237.614889L4.44444444 226.503778C4.44444444 225.277111 3.45111111 224.281556 2.22222222 224.281556.993333333 224.281556 0 225.277111 0 226.503778L0 237.614889C0 238.841556.993333333 239.837111 2.22222222 239.837111M75.4448889 221.392L86.556 221.392C87.7848889 221.392 88.7782222 220.396444 88.7782222 219.169778 88.7782222 217.943111 87.7848889 216.947556 86.556 216.947556L75.4448889 216.947556C74.216 216.947556 73.2226667 217.943111 73.2226667 219.169778 73.2226667 220.396444 74.216 221.392 75.4448889 221.392M53.2226667 221.392L64.3337778 221.392C65.5626667 221.392 66.556 220.396444 66.556 219.169778 66.556 217.943111 65.5626667 216.947556 64.3337778 216.947556L53.2226667 216.947556C51.9937778 216.947556 51.0004444 217.943111 51.0004444 219.169778 51.0004444 220.396444 51.9937778 221.392 53.2226667 221.392M8.77822222 221.392L19.8893333 221.392C21.1182222 221.392 22.1115556 220.396444 22.1115556 219.169778 22.1115556 217.943111 21.1182222 216.947556 19.8893333 216.947556L8.77822222 216.947556C7.54933333 216.947556 6.556 217.943111 6.556 219.169778 6.556 220.396444 7.54933333 221.392 8.77822222 221.392M2.22222222 262.059333C3.45111111 262.059333 4.44444444 261.063778 4.44444444 259.837111L4.44444444 248.726C4.44444444 247.499333 3.45111111 246.503778 2.22222222 246.503778.993333333 246.503778 0 247.499333 0 248.726L0 259.837111C0 261.063778.993333333 262.059333 2.22222222 262.059333M31.0004444 221.392L42.1115556 221.392C43.3404444 221.392 44.3337778 220.396444 44.3337778 219.169778 44.3337778 217.943111 43.3404444 216.947556 42.1115556 216.947556L31.0004444 216.947556C29.7715556 216.947556 28.7782222 217.943111 28.7782222 219.169778 28.7782222 220.396444 29.7715556 221.392 31.0004444 221.392"/>
    <g transform="translate(131.111 289.296)">
      <mask id="b" fill="white">
        <use xlink:href="#a"/>
      </mask>
      <path fill="#48A8E2" d="M15.0086667,0.920222222 C13.8886667,0.395777778 12.5731111,0.880222222 12.0531111,1.98688889 C11.3508889,3.48022222 9.83755556,4.44466667 8.19311111,4.44466667 L4.42866667,4.44466667 C3.202,4.44466667 2.20644444,5.44022222 2.20644444,6.66688889 C2.20644444,7.89355556 3.202,8.88911111 4.42866667,8.88911111 L8.19311111,8.88911111 C11.5531111,8.88911111 14.6486667,6.92022222 16.0753333,3.87577778 C16.5975556,2.76466667 16.1197778,1.44022222 15.0086667,0.920222222" mask="url(#b)"/>
    </g>
    <path fill="#48A8E2" d="M131.000444 216.947556L119.889333 216.947556C118.660444 216.947556 117.667111 217.943111 117.667111 219.169778 117.667111 220.396444 118.660444 221.392 119.889333 221.392L131.000444 221.392C132.229333 221.392 133.222667 220.396444 133.222667 219.169778 133.222667 217.943111 132.229333 216.947556 131.000444 216.947556M145.785556 267.873111C144.556667 267.873111 143.563333 268.868667 143.563333 270.095333L143.563333 281.206444C143.563333 282.433111 144.556667 283.428667 145.785556 283.428667 147.014444 283.428667 148.007778 282.433111 148.007778 281.206444L148.007778 270.095333C148.007778 268.868667 147.014444 267.873111 145.785556 267.873111M145.785556 245.650889C144.556667 245.650889 143.563333 246.646444 143.563333 247.873111L143.563333 258.984222C143.563333 260.210889 144.556667 261.206444 145.785556 261.206444 147.014444 261.206444 148.007778 260.210889 148.007778 258.984222L148.007778 247.873111C148.007778 246.646444 147.014444 245.650889 145.785556 245.650889M102.207111 293.74L91.096 293.74C89.8671111 293.74 88.8737778 294.735556 88.8737778 295.962222 88.8737778 297.188889 89.8671111 298.184444 91.096 298.184444L102.207111 298.184444C103.436 298.184444 104.429333 297.188889 104.429333 295.962222 104.429333 294.735556 103.436 293.74 102.207111 293.74M142.958 217.750444C141.838 217.237111 140.520222 217.719333 140.006889 218.832667 139.489111 219.946 139.973556 221.268222 141.089111 221.781556 142.591333 222.479333 143.560222 223.999333 143.562444 225.650444L143.562444 236.761556C143.562444 237.988222 144.558 238.983778 145.784667 238.983778 147.013556 238.983778 148.006889 237.988222 148.006889 236.761556L148.006889 225.648222C148.004667 222.270444 146.022444 219.170444 142.958 217.750444M124.429333 293.74L113.318222 293.74C112.089333 293.74 111.096 294.735556 111.096 295.962222 111.096 297.188889 112.089333 298.184444 113.318222 298.184444L124.429333 298.184444C125.658222 298.184444 126.651556 297.188889 126.651556 295.962222 126.651556 294.735556 125.658222 293.74 124.429333 293.74M97.6671111 221.392L108.778222 221.392C110.007111 221.392 111.000444 220.396444 111.000444 219.169778 111.000444 217.943111 110.007111 216.947556 108.778222 216.947556L97.6671111 216.947556C96.4382222 216.947556 95.4448889 217.943111 95.4448889 219.169778 95.4448889 220.396444 96.4382222 221.392 97.6671111 221.392M15.8906667 233.447333L15.8906667 237.931778C15.8906667 239.751778 17.3662222 241.227333 19.1862222 241.227333L92.6551111 241.227333C94.4751111 241.227333 95.9506667 239.751778 95.9506667 237.931778L95.9506667 233.447333C95.9506667 231.627333 94.4751111 230.151778 92.6551111 230.151778L19.1862222 230.151778C17.3662222 230.151778 15.8906667 231.627333 15.8906667 233.447333M130.262667 249.625333L16.7071111 249.625333C15.4804444 249.625333 14.4848889 250.620889 14.4848889 251.847556 14.4848889 253.074222 15.4804444 254.069778 16.7071111 254.069778L130.262667 254.069778C131.491556 254.069778 132.484889 253.074222 132.484889 251.847556 132.484889 250.620889 131.491556 249.625333 130.262667 249.625333M130.262667 259.429111L16.7071111 259.429111C15.4804444 259.429111 14.4848889 260.424667 14.4848889 261.651333 14.4848889 262.878 15.4804444 263.873556 16.7071111 263.873556L130.262667 263.873556C131.491556 263.873556 132.484889 262.878 132.484889 261.651333 132.484889 260.424667 131.491556 259.429111 130.262667 259.429111M130.262667 269.231556L16.7071111 269.231556C15.4804444 269.231556 14.4848889 270.227111 14.4848889 271.453778 14.4848889 272.680444 15.4804444 273.676 16.7071111 273.676L130.262667 273.676C131.491556 273.676 132.484889 272.680444 132.484889 271.453778 132.484889 270.227111 131.491556 269.231556 130.262667 269.231556M130.262667 279.035111L16.7071111 279.035111C15.4804444 279.035111 14.4848889 280.030667 14.4848889 281.257333 14.4848889 282.484 15.4804444 283.479556 16.7071111 283.479556L130.262667 283.479556C131.491556 283.479556 132.484889 282.484 132.484889 281.257333 132.484889 280.030667 131.491556 279.035111 130.262667 279.035111M104.120444 233.447333L104.120444 237.931778C104.120444 239.751778 105.596 241.227333 107.416 241.227333L128.600444 241.227333C130.420444 241.227333 131.896 239.751778 131.896 237.931778L131.896 233.447333C131.896 231.627333 130.420444 230.151778 128.600444 230.151778L107.416 230.151778C105.596 230.151778 104.120444 231.627333 104.120444 233.447333"/>
    <path fill="#005D9B" d="M220.985556,284.723333 C211.83,285.101111 207.461111,282.374444 203.661111,275.067778 C201.094444,270.134444 197.854444,265.474444 194.394444,261.105556 C190.645556,256.372222 187.132222,256.494444 183.336667,260.743333 C180.25,264.196667 172.905556,261.39 169.738889,256.058889 C167.263333,251.89 164.625556,247.485556 161.005556,244.436667 C158.581111,242.394444 153.518889,240.847778 151.012222,242.021111 C142.487778,246.007778 134.883333,243.132222 127.258889,240.398889 C122.592222,238.725556 118.223333,236.054444 113.981111,233.416667 C108.467778,229.987778 102.983333,226.996667 96.1766667,227.03 C94.6255556,227.036667 91.95,225.29 91.6966667,223.981111 C90.2344444,216.461111 86.3233333,212.454444 78.3766667,212.503333 C77.4233333,212.51 75.9477778,210.318889 75.57,208.916667 C72.37,197.065556 68.7988889,185.27 66.5455556,173.23 C65.4188889,167.21 63.0522222,160.474444 67.5366667,154.472222 C67.6611111,154.305556 67.8344444,154.103333 67.8277778,153.925556 C67.3077778,140.178889 77.9922222,130.018889 79.6411111,116.985556 C80.0566667,113.696667 80.0788889,110.356667 80.3766667,107.047778 C80.5477778,105.143333 80.9055556,103.256667 81.2233333,101.05 C84.6433333,102.678889 87.2788889,103.932222 90.8322222,105.623333 C90.5877778,102.885556 90.4544444,101.414444 90.2788889,99.4655556 C91.5611111,99.5633333 92.5144444,99.4766667 93.37,99.7233333 C133.385556,111.236667 174.185556,116.37 215.803333,114.632222 C219.15,114.492222 222.454444,113.376667 226.21,112.63 C228.983333,115.807778 247.223333,120.678889 251.385556,118.734444 C252.154444,118.376667 252.472222,117.125556 253.094444,116.363333 C258.621111,109.587778 263.054444,110.574444 270.621111,114.627778 C275.654444,117.325556 278.072222,121.041111 281.478889,124.665556 C282.985556,126.267778 286.914444,126.518889 289.483333,126.025556 C297.705556,124.454444 303.625556,127.13 307.765556,134.423333 C307.363333,135.052222 306.967778,136.303333 306.478889,136.341111 C295.034444,137.214444 302.152222,148.218889 297.578889,152.956667 C300.347778,151.498889 303.13,150.065556 305.881111,148.574444 C306.598889,148.183333 307.854444,147.523333 307.796667,147.154444 C306.481111,138.694444 314.121111,138.147778 318.538889,134.696667 C321.743333,132.194444 324.447778,129.027778 327.738889,126.665556 C330.525556,124.667778 333.71,123.063333 336.934444,121.872222 C347.912222,117.816667 347.781111,117.907778 348.278889,106.363333 C348.405556,103.452222 349.145556,99.6811111 351.076667,97.9233333 C354.741111,94.5811111 358.974444,96.4166667 361.656667,101.076667 C363.272222,103.89 365.016667,107.063333 367.572222,108.801111 C371.747778,111.641111 370.905556,113.661111 368.003333,116.592222 C365.274444,119.345556 362.894444,122.445556 360.37,125.398889 C356.178889,130.298889 356.881111,133.632222 362.43,136.61 C363.487778,137.178889 364.867778,139.356667 364.561111,139.863333 C363.387778,141.814444 361.894444,144.032222 359.952222,144.958889 C356.494444,146.607778 348.192222,156.407778 347.65,160.036667 C346.774444,165.907778 345.196667,171.692222 344.663333,177.583333 C344.374444,180.787778 344.825556,184.583333 346.354444,187.323333 C349.852222,193.596667 349.094444,196.994444 343.812222,201.69 C339.285556,205.714444 335.756667,210.874444 331.894444,215.618889 C330.463333,217.374444 329.621111,219.676667 328.018889,221.216667 C319.363333,229.545556 322.118889,238.11 328.31,246.058889 C333.792222,253.096667 340.73,259.943333 338.947778,270.263333 C338.685556,271.776667 337.601111,273.694444 336.343333,274.336667 C334.947778,275.047778 332.565556,275.125556 331.236667,274.374444 C329.025556,273.125556 327.167778,271.13 325.418889,269.212222 C320.972222,264.338889 314.523333,261.107778 314.741111,252.596667 C314.801111,250.236667 309.201111,247.732222 305.956667,245.098889 C302.127778,249.743333 298.765556,249.201111 293.376667,247.527778 C288.174444,245.912222 281.476667,249.165556 275.421111,250.183333 C274.623333,250.316667 273.73,249.883333 271.776667,249.492222 C272.947778,252.034444 273.921111,254.145556 275.367778,257.283333 C273.941111,257.494444 272.414444,257.83 270.876667,257.896667 C270.143333,257.93 269.116667,257.007778 268.683333,257.272222 C261.805556,261.454444 255.232222,255.721111 248.465556,256.718889 C246.852222,256.956667 244.716667,255.972222 243.572222,256.712222 C236.316667,261.396667 228.65,265.756667 222.478889,271.647778 C220.138889,273.881111 221.407778,279.894444 220.985556,284.723333"/>
    <path fill="#FFFFFF" d="M188.804222,255.890222 C188.866444,255.890222 188.930889,255.890222 188.990889,255.892444 C191.335333,255.961333 193.528667,257.328 195.702,260.070222 C199.695333,265.116889 202.784222,269.770222 205.139778,274.296889 C208.537556,280.834667 212.137556,283.054667 219.404222,283.092444 C219.426444,282.052444 219.404222,280.968 219.379778,279.908 C219.290889,276.081333 219.206444,272.465778 221.328667,270.443556 C226.439778,265.563556 232.559778,261.703556 238.484222,257.972444 C239.884222,257.088 241.282,256.205778 242.666444,255.312444 C243.864222,254.543556 245.275333,254.754667 246.513111,254.941333 C247.142,255.036889 247.797556,255.134667 248.222,255.070222 C251.288667,254.621333 254.204222,255.368 257.024222,256.094667 C260.935333,257.103556 264.317556,257.974667 267.817556,255.848 C268.813111,255.239111 269.839778,255.730222 270.453111,256.025778 C270.613111,256.101333 270.853111,256.219111 270.946444,256.239111 C271.542,256.203556 272.233111,256.105778 272.935333,255.992444 L270.262,250.190222 C270.002,249.619111 270.079778,248.950222 270.468667,248.459111 C270.859778,247.968 271.499778,247.736889 272.104222,247.856889 C272.862,248.010222 273.468667,248.168 273.973111,248.299111 C274.453111,248.425778 275.010889,248.565778 275.144222,248.539111 C276.975333,248.232444 278.942,247.690222 280.844222,247.165778 C285.270889,245.948 289.850889,244.688 293.870889,245.936889 C299.093111,247.559111 301.537556,247.841333 304.668667,244.039111 C305.253111,243.328 306.299778,243.230222 307.004222,243.803556 C307.973111,244.590222 309.224222,245.401333 310.433111,246.185778 C313.673111,248.285778 316.470889,250.101333 316.406444,252.639111 C316.262,258.399111 319.479778,261.336889 323.206444,264.741333 C324.362,265.799111 325.557556,266.892444 326.648667,268.088 C328.144222,269.725778 330.002,271.763556 332.057556,272.925778 C332.848667,273.374667 334.635333,273.336889 335.586444,272.850222 C336.275333,272.501333 337.110889,271.105778 337.304222,269.981333 C338.742,261.665778 334.044222,255.848 329.075333,249.688 C328.373111,248.819111 327.673111,247.952444 326.997556,247.083556 C318.848667,236.623556 318.804222,227.770222 326.866444,220.016889 C327.615333,219.294667 328.206444,218.294667 328.833111,217.234667 C329.362,216.341333 329.906444,215.416889 330.604222,214.563556 C331.595333,213.345778 332.564222,212.099111 333.537556,210.850222 C336.339778,207.250222 339.237556,203.528 342.706444,200.443556 C347.515333,196.168 347.966444,193.636889 344.897556,188.134667 C343.357556,185.374667 342.650889,181.372444 343.004222,177.432444 C343.328667,173.825778 344.042,170.239111 344.730889,166.770222 C345.186444,164.481333 345.657556,162.112444 346.002,159.792444 C346.633111,155.554667 355.335333,145.312444 359.235333,143.452444 C360.599778,142.803556 361.802,141.156889 362.819778,139.516889 C362.550889,139.012444 361.966444,138.254667 361.642,138.079111 C358.350889,136.314667 356.539778,134.332444 356.108667,132.023556 C355.673111,129.703556 356.650889,127.181333 359.102,124.316889 C359.846444,123.448 360.575333,122.565778 361.306444,121.683556 C363.046444,119.581333 364.846444,117.408 366.819778,115.419111 C367.695333,114.534667 368.850889,113.268 368.773111,112.476889 C368.742,112.139111 368.419778,111.392444 366.633111,110.179111 C363.882,108.308 362.053111,105.119111 360.437556,102.303556 L360.210889,101.908 C358.899778,99.6302222 357.208667,98.1768889 355.573111,97.9235556 C354.424222,97.7413333 353.290889,98.1568889 352.199778,99.1524444 C350.973111,100.272444 350.086444,103.130222 349.944222,106.434667 L349.926444,106.836889 C349.419778,118.585778 348.959778,119.205778 337.639778,123.388 C334.264222,124.634667 331.219778,126.221333 328.710889,128.021333 C327.006444,129.241333 325.475333,130.685778 323.853111,132.214667 C322.490889,133.496889 321.084222,134.823556 319.566444,136.010222 C318.257556,137.030222 316.750889,137.794667 315.295333,138.534667 C311.062,140.679111 308.702,142.125778 309.444222,146.896889 C309.675333,148.412444 308.206444,149.208 306.786444,149.979111 C304.693111,151.112444 302.697556,152.156889 300.702,153.201333 L298.353111,154.430222 C297.633111,154.808 296.735333,154.610222 296.246444,153.956889 C295.753111,153.301333 295.810889,152.388 296.377556,151.796889 C297.684222,150.445778 297.702,148.085778 297.722,145.590222 C297.753111,141.368 297.799778,135.625778 305.726444,134.739111 C305.773111,134.648 305.817556,134.552444 305.859778,134.470222 C302.137556,128.450222 297.017556,126.276889 289.795333,127.663556 C287.144222,128.170222 282.415333,128.094667 280.264222,125.808 C279.453111,124.943556 278.697556,124.074667 277.948667,123.216889 C275.619778,120.543556 273.422,118.019111 269.833111,116.096889 C262.328667,112.079111 259.044222,111.708 254.386444,117.416889 C254.217556,117.623556 254.086444,117.890222 253.948667,118.145778 C253.559778,118.876889 253.070889,119.788 252.090889,120.245778 C247.428667,122.421333 230.488667,118.039111 225.733111,114.430222 C224.817556,114.628 223.928667,114.841333 223.057556,115.050222 C220.606444,115.639111 218.293111,116.194667 215.873111,116.296889 C174.770889,118.010222 133.395333,112.976889 92.9108889,101.323556 C92.6886667,101.261333 92.4242222,101.230222 92.1086667,101.212444 L92.4931111,105.472444 C92.5486667,106.068 92.2775556,106.648 91.7864444,106.990222 C91.2953333,107.332444 90.6575556,107.385778 90.1175556,107.128 L82.5308889,103.519111 C82.3308889,104.796889 82.1442222,105.994667 82.0353333,107.199111 C81.9153333,108.530222 81.842,109.865778 81.7686667,111.203556 C81.6597778,113.163556 81.5464444,115.190222 81.2931111,117.196889 C80.522,123.281333 77.8864444,128.739111 75.3353333,134.016889 C72.1886667,140.521333 69.222,146.665778 69.4931111,153.863556 C69.5197778,154.616889 69.1086667,155.159111 68.9108889,155.419111 C65.4664444,160.028 66.5286667,165.028 67.6508889,170.321333 C67.8375556,171.201333 68.022,172.068 68.1842222,172.923556 C69.9331111,182.265778 72.5331111,191.648 75.0464444,200.721333 C75.762,203.308 76.4775556,205.894667 77.1775556,208.483556 C77.4086667,209.339111 78.1997778,210.494667 78.6175556,210.836889 C86.8464444,210.870222 91.662,215.068 93.3331111,223.663556 C93.5531111,224.188 95.3442222,225.363556 96.1642222,225.363556 L96.1686667,225.363556 L96.2886667,225.363556 C103.573111,225.363556 109.455333,228.641333 114.862,232.001333 C118.553111,234.296889 123.144222,237.154667 127.822,238.828 L128.286444,238.994667 C135.628667,241.632444 142.568667,244.128 150.306444,240.512444 C153.735333,238.903556 159.475333,240.972444 162.082,243.163556 C165.962,246.430222 168.730889,251.094667 171.170889,255.210222 C172.848667,258.034667 176.153111,260.288 179.026444,260.568 C179.948667,260.654667 181.253111,260.572444 182.093111,259.634667 C184.342,257.114667 186.539778,255.890222 188.804222,255.890222 L188.804222,255.890222 Z M219.393111,286.423556 C210.895333,286.423556 206.137556,283.441333 202.184222,275.836889 C199.926444,271.499111 196.950889,267.019111 193.088667,262.139111 C191.586444,260.243556 190.173111,259.261333 188.893111,259.223556 C187.617556,259.172444 186.170889,260.072444 184.579778,261.854667 C183.202,263.399111 181.117556,264.114667 178.704222,263.885778 C174.733111,263.499111 170.553111,260.696889 168.306444,256.910222 C165.997556,253.023556 163.384222,248.616889 159.933111,245.712444 C157.784222,243.901333 153.399778,242.743556 151.719778,243.530222 C142.744222,247.728 134.822,244.883556 127.159778,242.132444 L126.697556,241.968 C121.686444,240.170222 116.926444,237.210222 113.102,234.832444 C107.899778,231.599111 102.697556,228.696889 96.2886667,228.696889 L96.1686667,228.696889 C93.9175556,228.696889 90.4953333,226.530222 90.0597778,224.299111 C88.6731111,217.156889 85.1153333,214.125778 78.3886667,214.170222 L78.3753333,214.170222 C76.0308889,214.170222 74.2953333,210.590222 73.9597778,209.352444 C73.262,206.770222 72.5486667,204.192444 71.8331111,201.610222 C69.302,192.472444 66.682,183.019111 64.9064444,173.536889 C64.7531111,172.708 64.5731111,171.865778 64.3931111,171.014667 C63.2242222,165.519111 61.9042222,159.294667 66.1486667,153.545778 C65.9797778,145.712444 69.2086667,139.030222 72.3331111,132.565778 C74.8797778,127.296889 77.2842222,122.323556 77.9864444,116.776889 C78.2242222,114.888 78.3353333,112.921333 78.4397778,111.019111 C78.5153333,109.645778 78.5931111,108.270222 78.7153333,106.901333 C78.8353333,105.568 79.042,104.243556 79.2664444,102.821333 C79.3686667,102.176889 79.4731111,101.510222 79.5753333,100.812444 C79.6508889,100.288 79.9686667,99.8324444 80.4353333,99.5813333 C80.9086667,99.3324444 81.462,99.3168889 81.9397778,99.5457778 L88.9131111,102.863556 L88.6197778,99.6146667 C88.5753333,99.1257778 88.7508889,98.6435556 89.0931111,98.2946667 C89.4375556,97.9457778 89.9197778,97.7591111 90.4064444,97.8035556 C90.8153333,97.8346667 91.1886667,97.8457778 91.5375556,97.8546667 C92.322,97.8791111 93.0642222,97.9013333 93.8308889,98.1213333 C133.975333,109.674667 175.006444,114.679111 215.733111,112.965778 C217.828667,112.879111 219.988667,112.359111 222.279778,111.810222 C223.444222,111.530222 224.639778,111.243556 225.886444,110.996889 C226.468667,110.881333 227.073111,111.083556 227.466444,111.534667 C229.690889,114.083556 247.199778,118.845778 250.679778,117.223556 C250.682,117.190222 250.879778,116.819111 251.010889,116.572444 C251.253111,116.125778 251.504222,115.676889 251.802,115.310222 C258.457556,107.150222 264.373111,109.388 271.408667,113.159111 C275.533111,115.370222 278.039778,118.245778 280.462,121.028 C281.182,121.854667 281.910889,122.692444 282.695333,123.523556 C283.555333,124.439111 286.702,124.859111 289.170889,124.388 C298.150889,122.668 304.717556,125.679111 309.217556,133.599111 C309.522,134.139111 309.502,134.801333 309.168667,135.321333 C309.073111,135.472444 308.982,135.670222 308.886444,135.868 C308.468667,136.728 307.893111,137.905778 306.604222,138.003556 C301.346444,138.403556 301.093111,140.756889 301.055333,145.616889 C301.046444,146.828 301.035333,148.105778 300.864222,149.352444 C302.277556,148.612444 303.684222,147.868 305.086444,147.108 C305.350889,146.965778 305.739778,146.754667 306.044222,146.570222 C305.373111,139.825778 310.024222,137.468 313.786444,135.559111 C315.162,134.863556 316.459778,134.203556 317.513111,133.383556 C318.913111,132.290222 320.202,131.076889 321.566444,129.790222 C323.197556,128.252444 324.884222,126.663556 326.766444,125.312444 C329.557556,123.312444 332.784222,121.628 336.357556,120.308 C346.166444,116.683556 346.166444,116.683556 346.597556,106.692444 L346.615333,106.292444 C346.704222,104.239111 347.204222,99.1924444 349.955333,96.6902222 C351.804222,95.0057778 353.930889,94.288 356.086444,94.6302222 C358.764222,95.0457778 361.257556,97.0413333 363.102,100.245778 L363.330889,100.645778 C364.835333,103.270222 366.390889,105.983556 368.508667,107.423556 C369.944222,108.399111 371.877556,109.952444 372.090889,112.154667 C372.297556,114.299111 370.817556,116.119111 369.188667,117.763556 C367.317556,119.650222 365.566444,121.765778 363.873111,123.810222 C363.130889,124.703556 362.388667,125.599111 361.635333,126.481333 C359.908667,128.503556 359.150889,130.161333 359.384222,131.410222 C359.615333,132.645778 360.906444,133.901333 363.217556,135.143556 C364.497556,135.828 365.828667,137.714667 366.166444,138.943556 C366.353111,139.621333 366.293111,140.219111 365.988667,140.723556 C364.653111,142.943556 362.975333,145.363556 360.670889,146.461333 C357.484222,147.981333 349.728667,157.410222 349.302,160.283556 C348.942,162.685778 348.464222,165.092444 348.002,167.421333 C347.328667,170.803556 346.633111,174.301333 346.324222,177.732444 C346.030889,180.981333 346.599778,184.343556 347.810889,186.512444 C351.624222,193.350222 350.868667,197.648 344.919778,202.936889 C341.679778,205.814667 338.877556,209.416889 336.168667,212.896889 C335.182,214.165778 334.195333,215.432444 333.188667,216.670222 C332.650889,217.330222 332.188667,218.108 331.702,218.932444 C330.988667,220.136889 330.250889,221.383556 329.175333,222.419111 C322.388667,228.948 322.526444,235.923556 329.626444,245.034667 C330.290889,245.888 330.979778,246.739111 331.668667,247.594667 C336.642,253.759111 342.279778,260.745778 340.590889,270.548 C340.262,272.452444 338.957556,274.874667 337.099778,275.821333 C335.370889,276.703556 332.399778,276.945778 330.417556,275.828 C327.899778,274.403556 325.842,272.148 324.188667,270.334667 C323.199778,269.250222 322.108667,268.256889 320.957556,267.201333 C317.175333,263.748 312.890889,259.834667 313.073111,252.554667 C312.937556,251.781333 310.130889,249.961333 308.619778,248.981333 C307.799778,248.450222 306.959778,247.905778 306.170889,247.345778 C302.033111,251.510222 297.999778,250.708 292.882,249.119111 C289.795333,248.161333 285.877556,249.236889 281.728667,250.379111 C279.746444,250.925778 277.695333,251.490222 275.697556,251.828 C275.355333,251.885778 275.033111,251.890222 274.699778,251.854667 L276.882,256.585778 C277.099778,257.063556 277.084222,257.616889 276.830889,258.079111 C276.582,258.539111 276.128667,258.856889 275.610889,258.932444 C275.210889,258.992444 274.802,259.059111 274.388667,259.130222 C273.288667,259.316889 272.148667,259.508 270.950889,259.561333 C270.170889,259.599111 269.528667,259.281333 269.008667,259.028 C268.999778,259.025778 268.993111,259.021333 268.986444,259.019111 C264.486444,261.461333 260.088667,260.325778 256.193111,259.323556 C253.577556,258.648 251.106444,258.005778 248.708667,258.368 C247.793111,258.503556 246.846444,258.361333 246.017556,258.236889 C245.519778,258.163556 244.688667,258.034667 244.448667,258.128 C243.082,259.012444 241.670889,259.901333 240.259778,260.790222 C234.477556,264.436889 228.497556,268.205778 223.628667,272.852444 C222.573111,273.861333 222.646444,277.032444 222.710889,279.830222 C222.748667,281.501333 222.788667,283.225778 222.646444,284.868 C222.570889,285.703556 221.890889,286.354667 221.055333,286.388 C220.486444,286.412444 219.930889,286.423556 219.393111,286.423556 L219.393111,286.423556 Z"/>
    <g transform="translate(162.222 .407)">
      <mask id="d" fill="white">
        <use xlink:href="#c"/>
      </mask>
      <path fill="#FFFFFF" d="M108.157556,6.468 C108.057556,6.468 107.957556,6.45911111 107.855333,6.44133333 C104.306444,5.79244444 100.673111,5.35688889 97.0575556,5.148 C96.1375556,5.09466667 95.4353333,4.308 95.4886667,3.388 C95.542,2.47022222 96.3108889,1.74133333 97.2486667,1.82133333 C100.999778,2.03688889 104.770889,2.488 108.455333,3.16133333 C109.359778,3.32577778 109.962,4.19466667 109.795333,5.10133333 C109.648667,5.90577778 108.946444,6.468 108.157556,6.468 M75.0753333,6.57022222 C74.2908889,6.57022222 73.5908889,6.01244444 73.4397778,5.21466667 C73.2686667,4.308 73.862,3.43688889 74.7686667,3.26577778 C78.4486667,2.568 82.2153333,2.09466667 85.9664444,1.85466667 C86.8842222,1.81688889 87.6775556,2.49244444 87.7353333,3.41244444 C87.7931111,4.33244444 87.0953333,5.12355556 86.1775556,5.18133333 C82.562,5.41244444 78.9353333,5.868 75.3886667,6.54133333 C75.2842222,6.56133333 75.1797778,6.57022222 75.0753333,6.57022222 M129.259778,13.1235556 C129.026444,13.1235556 128.790889,13.0746667 128.566444,12.9702222 C125.275333,11.4635556 121.859778,10.1457778 118.410889,9.05911111 C117.533111,8.78133333 117.046444,7.84577778 117.324222,6.968 C117.599778,6.09022222 118.533111,5.60133333 119.413111,5.87911111 C122.995333,7.008 126.539778,8.37466667 129.955333,9.94133333 C130.793111,10.3257778 131.159778,11.3146667 130.775333,12.1502222 C130.495333,12.7635556 129.888667,13.1235556 129.259778,13.1235556 M54.0264444,13.3546667 C53.3953333,13.3546667 52.7953333,12.9968889 52.5131111,12.3924444 C52.1242222,11.5591111 52.4842222,10.5657778 53.3175556,10.1768889 C56.722,8.588 60.2597778,7.20133333 63.8308889,6.05244444 C64.702,5.77244444 65.6442222,6.25022222 65.9264444,7.12577778 C66.2086667,8.00355556 65.7264444,8.94133333 64.8508889,9.22355556 C61.4131111,10.3302222 58.0086667,11.668 54.7286667,13.1968889 C54.4997778,13.3035556 54.2597778,13.3546667 54.0264444,13.3546667 M148.068667,24.7835556 C147.699778,24.7835556 147.328667,24.6613333 147.019778,24.4124444 C144.210889,22.1413333 141.226444,20.0235556 138.150889,18.1168889 C137.370889,17.6302222 137.128667,16.6035556 137.613111,15.8213333 C138.099778,15.0413333 139.128667,14.7968889 139.908667,15.2835556 C143.099778,17.2613333 146.197556,19.4613333 149.117556,21.8191111 C149.833111,22.3968889 149.944222,23.448 149.364222,24.1635556 C149.037556,24.5702222 148.555333,24.7835556 148.068667,24.7835556 M35.302,25.1168889 C34.8197778,25.1168889 34.3397778,24.908 34.0131111,24.5035556 C33.4286667,23.7924444 33.5331111,22.7413333 34.2464444,22.1591111 C37.1508889,19.7835556 40.2331111,17.568 43.4086667,15.5724444 C44.1931111,15.0813333 45.2175556,15.3191111 45.7064444,16.0968889 C46.1975556,16.8768889 45.9642222,17.9035556 45.1842222,18.3946667 C42.122,20.3168889 39.1531111,22.4524444 36.3553333,24.7391111 C36.0486667,24.9924444 35.6731111,25.1168889 35.302,25.1168889 M163.415333,40.7168889 C162.908667,40.7168889 162.406444,40.4857778 162.079778,40.048 C159.915333,37.1524444 157.548667,34.3635556 155.042,31.7591111 C154.404222,31.0968889 154.422,30.0413333 155.084222,29.4035556 C155.746444,28.768 156.802,28.7835556 157.442,29.448 C160.044222,32.1502222 162.502,35.0457778 164.748667,38.0524444 C165.299778,38.7902222 165.148667,39.8346667 164.410889,40.3857778 C164.113111,40.6102222 163.759778,40.7168889 163.415333,40.7168889 M20.0531111,41.1391111 C19.7086667,41.1391111 19.3642222,41.0346667 19.0642222,40.8146667 C18.3242222,40.268 18.1664444,39.2257778 18.7131111,38.4835556 C20.9331111,35.4702222 23.3753333,32.5613333 25.9708889,29.8346667 C26.6042222,29.168 27.6575556,29.1391111 28.3242222,29.7746667 C28.9931111,30.4102222 29.0197778,31.4657778 28.3842222,32.1324444 C25.8864444,34.7568889 23.5331111,37.5591111 21.3953333,40.4613333 C21.0708889,40.9057778 20.5642222,41.1391111 20.0531111,41.1391111 M174.299778,59.9591111 C173.644222,59.9591111 173.019778,59.5702222 172.755333,58.9235556 C171.388667,55.5791111 169.793111,52.2902222 168.017556,49.148 C167.564222,48.348 167.846444,47.3302222 168.648667,46.8768889 C169.444222,46.4235556 170.464222,46.7035556 170.917556,47.508 C172.764222,50.7702222 174.419778,54.188 175.842,57.6635556 C176.188667,58.5146667 175.782,59.488 174.930889,59.8368889 C174.722,59.9213333 174.508667,59.9591111 174.299778,59.9591111 M9.27977778,60.4635556 C9.07311111,60.4635556 8.862,60.4257778 8.65977778,60.3457778 C7.80422222,60.0013333 7.38866667,59.0324444 7.73311111,58.1768889 C9.12644444,54.7013333 10.762,51.2724444 12.5953333,47.9813333 C13.0442222,47.1791111 14.0508889,46.8835556 14.8642222,47.3368889 C15.6664444,47.7835556 15.9553333,48.7991111 15.5086667,49.6035556 C13.7442222,52.7702222 12.1686667,56.0724444 10.8264444,59.4191111 C10.5664444,60.0702222 9.93977778,60.4635556 9.27977778,60.4635556 M179.962,81.3368889 C179.135333,81.3368889 178.419778,80.728 178.310889,79.888 C177.839778,76.308 177.133111,72.7213333 176.208667,69.228 C175.973111,68.3368889 176.502,67.4257778 177.390889,67.1902222 C178.270889,66.9591111 179.193111,67.4835556 179.428667,68.3746667 C180.390889,72.0057778 181.126444,75.7346667 181.615333,79.4546667 C181.735333,80.3657778 181.093111,81.2035556 180.179778,81.3235556 C180.106444,81.3324444 180.033111,81.3368889 179.962,81.3368889 M3.74866667,81.8835556 C3.67755556,81.8835556 3.60866667,81.8791111 3.53755556,81.8702222 C2.62644444,81.7546667 1.97755556,80.9213333 2.09311111,80.008 C2.55977778,76.2746667 3.27311111,72.5413333 4.20866667,68.9168889 C4.43977778,68.0235556 5.35977778,67.488 6.23977778,67.7191111 C7.13088889,67.9502222 7.66644444,68.8591111 7.43755556,69.7502222 C6.53533333,73.2368889 5.85088889,76.8302222 5.39977778,80.4235556 C5.29311111,81.2657778 4.57755556,81.8835556 3.74866667,81.8835556 M180.013111,103.816889 C179.944222,103.816889 179.870889,103.812444 179.799778,103.803556 C178.886444,103.685778 178.239778,102.852444 178.357556,101.936889 C178.813111,98.3746667 179.042,94.7257778 179.042,91.0924444 L179.042,90.7257778 C179.042,89.8057778 179.788667,89.0591111 180.708667,89.0591111 C181.630889,89.0591111 182.375333,89.8057778 182.375333,90.7257778 L182.375333,91.0924444 C182.375333,94.868 182.137556,98.6591111 181.664222,102.361333 C181.555333,103.201333 180.839778,103.816889 180.013111,103.816889 M3.78866667,103.999111 C2.96422222,103.999111 2.24644444,103.388 2.13755556,102.545778 C1.65755556,98.8391111 1.41088889,95.048 1.402,91.2813333 C1.39977778,90.3591111 2.14422222,89.6124444 3.06422222,89.6102222 L3.06866667,89.6102222 C3.98644444,89.6102222 4.73311111,90.3524444 4.73533333,91.2724444 C4.74422222,94.9013333 4.982,98.5502222 5.44422222,102.119111 C5.562,103.032444 4.91755556,103.868 4.00644444,103.985778 C3.93311111,103.994667 3.85977778,103.999111 3.78866667,103.999111 M174.433111,125.225778 C174.224222,125.225778 174.015333,125.188 173.810889,125.105778 C172.957556,124.761333 172.544222,123.790222 172.888667,122.936889 C174.239778,119.576889 175.388667,116.103556 176.299778,112.610222 C176.533111,111.716889 177.448667,111.185778 178.333111,111.419111 C179.222,111.650222 179.757556,112.561333 179.524222,113.450222 C178.577556,117.081333 177.384222,120.690222 175.979778,124.181333 C175.717556,124.832444 175.093111,125.225778 174.433111,125.225778 M9.41311111,125.390222 C8.75755556,125.390222 8.13088889,124.996889 7.86866667,124.348 C6.45533333,120.863556 5.25533333,117.256889 4.30422222,113.632444 C4.06866667,112.741333 4.602,111.830222 5.49311111,111.596889 C6.37533333,111.370222 7.29311111,111.894667 7.52866667,112.783556 C8.44422222,116.274667 9.59755556,119.743556 10.9597778,123.096889 C11.3042222,123.950222 10.8931111,124.921333 10.042,125.265778 C9.83533333,125.350222 9.622,125.390222 9.41311111,125.390222 M163.617556,144.528 C163.275333,144.528 162.926444,144.421333 162.628667,144.201333 C161.888667,143.652444 161.730889,142.610222 162.279778,141.870222 C164.433111,138.961333 166.419778,135.890222 168.186444,132.739111 C168.637556,131.939111 169.653111,131.652444 170.455333,132.101333 C171.259778,132.550222 171.542,133.565778 171.093111,134.370222 C169.259778,137.641333 167.195333,140.832444 164.959778,143.852444 C164.633111,144.294667 164.128667,144.528 163.617556,144.528 M20.2597778,144.654667 C19.7508889,144.654667 19.2464444,144.423556 18.922,143.981333 C16.6708889,140.956889 14.602,137.770222 12.7731111,134.514667 C12.322,133.712444 12.6064444,132.696889 13.4086667,132.245778 C14.2153333,131.792444 15.2286667,132.081333 15.6775556,132.881333 C17.4397778,136.014667 19.4308889,139.079111 21.5953333,141.994667 C22.1442222,142.732444 21.9931111,143.776889 21.2531111,144.325778 C20.9531111,144.548 20.6064444,144.654667 20.2597778,144.654667 M148.337556,160.519111 C147.853111,160.519111 147.373111,160.310222 147.046444,159.903556 C146.464222,159.190222 146.570889,158.141333 147.284222,157.559111 C150.090889,155.272444 152.779778,152.792444 155.273111,150.183556 C155.910889,149.514667 156.964222,149.492444 157.630889,150.130222 C158.295333,150.765778 158.317556,151.821333 157.682,152.485778 C155.093111,155.194667 152.302,157.770222 149.390889,160.143556 C149.082,160.396889 148.708667,160.519111 148.337556,160.519111 M35.5686667,160.621333 C35.1997778,160.621333 34.8286667,160.499111 34.5175556,160.250222 C31.6064444,157.888 28.8108889,155.314667 26.2108889,152.603556 C25.5731111,151.939111 25.5953333,150.885778 26.2597778,150.248 C26.922,149.608 27.9775556,149.632444 28.6153333,150.296889 C31.122,152.908 33.8131111,155.385778 36.6197778,157.661333 C37.3331111,158.239111 37.4442222,159.290222 36.8642222,160.003556 C36.5353333,160.410222 36.0531111,160.621333 35.5686667,160.621333 M129.590889,172.243556 C128.962,172.243556 128.359778,171.885778 128.077556,171.276889 C127.690889,170.441333 128.053111,169.450222 128.888667,169.063556 C132.162,167.545778 135.377556,165.805778 138.446444,163.885778 C139.222,163.396889 140.255333,163.634667 140.742,164.416889 C141.230889,165.196889 140.993111,166.225778 140.213111,166.712444 C137.026444,168.703556 133.688667,170.512444 130.290889,172.088 C130.062,172.192444 129.826444,172.243556 129.590889,172.243556 M54.3531111,172.319111 C54.1197778,172.319111 53.8797778,172.270222 53.6553333,172.165778 C50.2553333,170.596889 46.9086667,168.794667 43.7131111,166.805778 C42.9308889,166.319111 42.6931111,165.292444 43.1797778,164.510222 C43.6642222,163.730222 44.6864444,163.488 45.4753333,163.974667 C48.5553333,165.890222 51.7775556,167.628 55.0531111,169.139111 C55.8886667,169.525778 56.2531111,170.514667 55.8664444,171.352444 C55.5864444,171.961333 54.982,172.319111 54.3531111,172.319111 M108.519778,178.981333 C107.735333,178.981333 107.033111,178.423556 106.884222,177.621333 C106.715333,176.716889 107.310889,175.845778 108.215333,175.676889 C111.768667,175.012444 115.317556,174.116889 118.759778,173.016889 C119.639778,172.732444 120.573111,173.221333 120.855333,174.096889 C121.135333,174.972444 120.650889,175.912444 119.775333,176.190222 C116.199778,177.334667 112.517556,178.263556 108.828667,178.954667 C108.726444,178.972444 108.622,178.981333 108.519778,178.981333 M75.4442222,179.016889 C75.3442222,179.016889 75.242,179.008 75.1397778,178.988 C71.4464444,178.305778 67.762,177.385778 64.1908889,176.250222 C63.3108889,175.970222 62.8286667,175.034667 63.1064444,174.156889 C63.3864444,173.279111 64.3264444,172.794667 65.1975556,173.072444 C68.6397778,174.165778 72.1864444,175.052444 75.7464444,175.712444 C76.6508889,175.879111 77.2486667,176.748 77.082,177.652444 C76.9331111,178.456889 76.2331111,179.016889 75.4442222,179.016889 M91.8908889,180.519111 C90.0353333,180.519111 88.1686667,180.463556 86.3442222,180.352444 C85.4242222,180.296889 84.7242222,179.508 84.7775556,178.590222 C84.8375556,177.670222 85.6708889,176.985778 86.542,177.025778 C90.1108889,177.239111 93.8042222,177.236889 97.422,177.014667 C98.3175556,176.956889 99.1308889,177.656889 99.1886667,178.574667 C99.2442222,179.494667 98.5464444,180.285778 97.6264444,180.341333 C95.7242222,180.459111 93.7953333,180.519111 91.8908889,180.519111" mask="url(#d)"/>
    </g>
    <path fill="#0070B7" d="M283.179778,142.377111 C283.179778,181.630444 250.975333,213.450444 211.246444,213.450444 C171.519778,213.450444 139.313111,181.630444 139.313111,142.377111 C139.313111,103.123778 171.519778,71.3037778 211.246444,71.3037778 C250.975333,71.3037778 283.179778,103.123778 283.179778,142.377111"/>
    <path fill="#FFFFFF" d="M211.245556,73.5251111 C172.807778,73.5251111 141.536667,104.411778 141.536667,142.376222 C141.536667,180.342889 172.807778,211.229556 211.245556,211.229556 C249.685556,211.229556 280.956667,180.342889 280.956667,142.376222 C280.956667,104.411778 249.685556,73.5251111 211.245556,73.5251111 M211.245556,215.674 C170.358889,215.674 137.092222,182.791778 137.092222,142.376222 C137.092222,101.960667 170.358889,69.0806667 211.245556,69.0806667 C252.134444,69.0806667 285.401111,101.960667 285.401111,142.376222 C285.401111,182.791778 252.134444,215.674 211.245556,215.674"/>
    <path fill="#0084D4" d="M166.935778,172.244889 C166.935778,174.953778 164.769111,177.151556 162.098,177.151556 C159.426889,177.151556 157.260222,174.953778 157.260222,172.244889 C157.260222,169.536 159.426889,167.338222 162.098,167.338222 C164.769111,167.338222 166.935778,169.536 166.935778,172.244889"/>
    <path fill="#FFFFFF" d="M162.098444,168.450222 C160.042889,168.450222 158.371778,170.152444 158.371778,172.245778 C158.371778,174.336889 160.042889,176.039111 162.098444,176.039111 C164.154,176.039111 165.825111,174.336889 165.825111,172.245778 C165.825111,170.152444 164.154,168.450222 162.098444,168.450222 M162.098444,178.261333 C158.818444,178.261333 156.149556,175.563556 156.149556,172.245778 C156.149556,168.925778 158.818444,166.228 162.098444,166.228 C165.378444,166.228 168.047333,168.925778 168.047333,172.245778 C168.047333,175.563556 165.378444,178.261333 162.098444,178.261333"/>
    <path fill="#0084D4" d="M164.224222,135.558889 C164.224222,138.267778 162.057556,140.465556 159.386444,140.465556 C156.715333,140.465556 154.548667,138.267778 154.548667,135.558889 C154.548667,132.85 156.715333,130.652222 159.386444,130.652222 C162.057556,130.652222 164.224222,132.85 164.224222,135.558889"/>
    <path fill="#FFFFFF" d="M159.385778,131.764 C157.330222,131.764 155.659111,133.466222 155.659111,135.559556 C155.659111,137.650667 157.330222,139.352889 159.385778,139.352889 C161.441333,139.352889 163.112444,137.650667 163.112444,135.559556 C163.112444,133.466222 161.441333,131.764 159.385778,131.764 M159.385778,141.575111 C156.105778,141.575111 153.436889,138.877333 153.436889,135.559556 C153.436889,132.239556 156.105778,129.541778 159.385778,129.541778 C162.665778,129.541778 165.334667,132.239556 165.334667,135.559556 C165.334667,138.877333 162.665778,141.575111 159.385778,141.575111"/>
    <path fill="#0084D4" d="M162.526444,120.634222 C162.526444,123.343111 160.359778,125.540889 157.688667,125.540889 C155.017556,125.540889 152.850889,123.343111 152.850889,120.634222 C152.850889,117.925333 155.017556,115.727556 157.688667,115.727556 C160.359778,115.727556 162.526444,117.925333 162.526444,120.634222"/>
    <path fill="#FFFFFF" d="M157.688889,116.839333 C155.633333,116.839333 153.962222,118.541556 153.962222,120.634889 C153.962222,122.726 155.633333,124.430444 157.688889,124.430444 C159.744444,124.430444 161.415556,122.726 161.415556,120.634889 C161.415556,118.541556 159.744444,116.839333 157.688889,116.839333 M157.688889,126.652667 C154.408889,126.652667 151.74,123.952667 151.74,120.634889 C151.74,117.317111 154.408889,114.617111 157.688889,114.617111 C160.968889,114.617111 163.637778,117.317111 163.637778,120.634889 C163.637778,123.952667 160.968889,126.652667 157.688889,126.652667"/>
    <path fill="#2A7FC3" d="M256.198667,172.244889 C256.198667,174.953778 258.365333,177.151556 261.036444,177.151556 C263.707556,177.151556 265.874222,174.953778 265.874222,172.244889 C265.874222,169.536 263.707556,167.338222 261.036444,167.338222 C258.365333,167.338222 256.198667,169.536 256.198667,172.244889"/>
    <path stroke="#FFFFFF" d="M256.198667,172.244889 C256.198667,174.953778 258.365333,177.151556 261.036444,177.151556 C263.707556,177.151556 265.874222,174.953778 265.874222,172.244889 C265.874222,169.536 263.707556,167.338222 261.036444,167.338222 C258.365333,167.338222 256.198667,169.536 256.198667,172.244889 Z" stroke-linecap="round" stroke-linejoin="round"/>
    <path fill="#0084D4" d="M256.177333,172.244889 C256.177333,174.953778 258.344,177.151556 261.015111,177.151556 C263.686222,177.151556 265.852889,174.953778 265.852889,172.244889 C265.852889,169.536 263.686222,167.338222 261.015111,167.338222 C258.344,167.338222 256.177333,169.536 256.177333,172.244889"/>
    <path fill="#FFFFFF" d="M261.015556,168.450222 C258.96,168.450222 257.288889,170.152444 257.288889,172.245778 C257.288889,174.336889 258.96,176.039111 261.015556,176.039111 C263.071111,176.039111 264.742222,174.336889 264.742222,172.245778 C264.742222,170.152444 263.071111,168.450222 261.015556,168.450222 M261.015556,178.261333 C257.735556,178.261333 255.066667,175.563556 255.066667,172.245778 C255.066667,168.925778 257.735556,166.228 261.015556,166.228 C264.295556,166.228 266.964444,168.925778 266.964444,172.245778 C266.964444,175.563556 264.295556,178.261333 261.015556,178.261333"/>
    <path fill="#0084D4" d="M258.868222,135.558889 C258.868222,138.267778 261.034889,140.465556 263.706,140.465556 C266.377111,140.465556 268.543778,138.267778 268.543778,135.558889 C268.543778,132.85 266.377111,130.652222 263.706,130.652222 C261.034889,130.652222 258.868222,132.85 258.868222,135.558889"/>
    <path fill="#FFFFFF" d="M263.706667,131.764 C261.651111,131.764 259.977778,133.466222 259.977778,135.559556 C259.977778,137.650667 261.651111,139.352889 263.706667,139.352889 C265.762222,139.352889 267.433333,137.650667 267.433333,135.559556 C267.433333,133.466222 265.762222,131.764 263.706667,131.764 M263.706667,141.575111 C260.424444,141.575111 257.755556,138.877333 257.755556,135.559556 C257.755556,132.239556 260.424444,129.541778 263.706667,129.541778 C266.986667,129.541778 269.655556,132.239556 269.655556,135.559556 C269.655556,138.877333 266.986667,141.575111 263.706667,141.575111"/>
    <path fill="#0084D4" d="M260.566,120.634444 C260.566,123.343333 262.732667,125.541111 265.403778,125.541111 C268.074889,125.541111 270.241556,123.343333 270.241556,120.634444 C270.241556,117.925556 268.074889,115.727778 265.403778,115.727778 C262.732667,115.727778 260.566,117.925556 260.566,120.634444"/>
    <path fill="#FFFFFF" d="M265.403556,116.839333 C263.348,116.839333 261.676889,118.541556 261.676889,120.634889 C261.676889,122.726 263.348,124.430444 265.403556,124.430444 C267.459111,124.430444 269.130222,122.726 269.130222,120.634889 C269.130222,118.541556 267.459111,116.839333 265.403556,116.839333 M265.403556,126.652667 C262.123556,126.652667 259.454667,123.952667 259.454667,120.634889 C259.454667,117.317111 262.123556,114.617111 265.403556,114.617111 C268.683556,114.617111 271.352444,117.317111 271.352444,120.634889 C271.352444,123.952667 268.683556,126.652667 265.403556,126.652667"/>
    <path fill="#0084D4" d="M228.610444,194.411778 C228.610444,197.120667 230.777111,199.318444 233.448222,199.318444 C236.119333,199.318444 238.286,197.120667 238.286,194.411778 C238.286,191.702889 236.119333,189.505111 233.448222,189.505111 C230.777111,189.505111 228.610444,191.702889 228.610444,194.411778"/>
    <path fill="#FFFFFF" d="M233.448444,190.617111 C231.392889,190.617111 229.721778,192.319333 229.721778,194.412667 C229.721778,196.503778 231.392889,198.206 233.448444,198.206 C235.504,198.206 237.175111,196.503778 237.175111,194.412667 C237.175111,192.319333 235.504,190.617111 233.448444,190.617111 M233.448444,200.428222 C230.168444,200.428222 227.499556,197.730444 227.499556,194.412667 C227.499556,191.092667 230.168444,188.394889 233.448444,188.394889 C236.728444,188.394889 239.397333,191.092667 239.397333,194.412667 C239.397333,197.730444 236.728444,200.428222 233.448444,200.428222"/>
    <path fill="#0084D4" d="M184.827778,194.411778 C184.827778,197.120667 186.994444,199.318444 189.665556,199.318444 C192.336667,199.318444 194.503333,197.120667 194.503333,194.411778 C194.503333,191.702889 192.336667,189.505111 189.665556,189.505111 C186.994444,189.505111 184.827778,191.702889 184.827778,194.411778"/>
    <path fill="#FFFFFF" d="M189.665778 190.617111C187.610222 190.617111 185.939111 192.319333 185.939111 194.412667 185.939111 196.503778 187.610222 198.206 189.665778 198.206 191.721333 198.206 193.392444 196.503778 193.392444 194.412667 193.392444 192.319333 191.721333 190.617111 189.665778 190.617111M189.665778 200.428222C186.385778 200.428222 183.716889 197.730444 183.716889 194.412667 183.716889 191.092667 186.385778 188.394889 189.665778 188.394889 192.945778 188.394889 195.614667 191.092667 195.614667 194.412667 195.614667 197.730444 192.945778 200.428222 189.665778 200.428222M172.790667 135.558889C172.790667 137.383333 174.248444 138.861111 176.048444 138.861111 177.846222 138.861111 179.304 137.383333 179.304 135.558889 179.304 133.734444 177.846222 132.256667 176.048444 132.256667 174.248444 132.256667 172.790667 133.734444 172.790667 135.558889M172.790667 120.634222C172.790667 122.458667 174.248444 123.936444 176.048444 123.936444 177.846222 123.936444 179.304 122.458667 179.304 120.634222 179.304 118.809778 177.846222 117.332 176.048444 117.332 174.248444 117.332 172.790667 118.809778 172.790667 120.634222M172.790667 148.043556C172.790667 149.868 174.248444 151.345778 176.048444 151.345778 177.846222 151.345778 179.304 149.868 179.304 148.043556 179.304 146.219111 177.846222 144.741333 176.048444 144.741333 174.248444 144.741333 172.790667 146.219111 172.790667 148.043556M244.728444 135.558889C244.728444 137.383333 246.186222 138.861111 247.986222 138.861111 249.784 138.861111 251.241778 137.383333 251.241778 135.558889 251.241778 133.734444 249.784 132.256667 247.986222 132.256667 246.186222 132.256667 244.728444 133.734444 244.728444 135.558889M244.728444 120.634444C244.728444 122.458889 246.186222 123.936667 247.986222 123.936667 249.784 123.936667 251.241778 122.458889 251.241778 120.634444 251.241778 118.81 249.784 117.332222 247.986222 117.332222 246.186222 117.332222 244.728444 118.81 244.728444 120.634444M244.728444 148.043556C244.728444 149.868 246.186222 151.345778 247.986222 151.345778 249.784 151.345778 251.241778 149.868 251.241778 148.043556 251.241778 146.219111 249.784 144.741333 247.986222 144.741333 246.186222 144.741333 244.728444 146.219111 244.728444 148.043556M200.74 107.526889C200.74 109.351333 202.197778 110.829111 203.997778 110.829111 205.795556 110.829111 207.253333 109.351333 207.253333 107.526889 207.253333 105.702444 205.795556 104.224667 203.997778 104.224667 202.197778 104.224667 200.74 105.702444 200.74 107.526889M215.792444 107.526889C215.792444 109.351333 217.250222 110.829111 219.050222 110.829111 220.848 110.829111 222.305778 109.351333 222.305778 107.526889 222.305778 105.702444 220.848 104.224667 219.050222 104.224667 217.250222 104.224667 215.792444 105.702444 215.792444 107.526889M197.514444 178.465556C197.514444 180.29 198.972222 181.767778 200.772222 181.767778 202.57 181.767778 204.027778 180.29 204.027778 178.465556 204.027778 176.641111 202.57 175.163333 200.772222 175.163333 198.972222 175.163333 197.514444 176.641111 197.514444 178.465556M219.018 178.465556C219.018 180.29 220.475778 181.767778 222.275778 181.767778 224.073556 181.767778 225.531333 180.29 225.531333 178.465556 225.531333 176.641111 224.073556 175.163333 222.275778 175.163333 220.475778 175.163333 219.018 176.641111 219.018 178.465556"/>
    <path fill="#2A7FC3" d="M178.314222,120.634222 L162.909778,120.634222"/>
    <path fill="#FFFFFF" d="M178.313778,121.746 L162.909333,121.746 C162.296,121.746 161.798222,121.248222 161.798222,120.634889 C161.798222,120.021556 162.296,119.523778 162.909333,119.523778 L178.313778,119.523778 C178.927111,119.523778 179.424889,120.021556 179.424889,120.634889 C179.424889,121.248222 178.927111,121.746 178.313778,121.746"/>
    <path fill="#2A7FC3" d="M176.092,135.558889 L164.740889,135.558889"/>
    <path fill="#FFFFFF" d="M176.091556,136.669778 L164.742667,136.669778 C164.127111,136.669778 163.631556,136.172 163.631556,135.558667 C163.631556,134.945333 164.127111,134.447556 164.742667,134.447556 L176.091556,134.447556 C176.704889,134.447556 177.202667,134.945333 177.202667,135.558667 C177.202667,136.172 176.704889,136.669778 176.091556,136.669778"/>
    <path fill="#2A7FC3" d="M177.502444,147.936889 L162.098,147.936889"/>
    <path fill="#FFFFFF" d="M177.502222,149.048222 L162.097778,149.048222 C161.484444,149.048222 160.986667,148.550444 160.986667,147.937111 C160.986667,147.323778 161.484444,146.826 162.097778,146.826 L177.502222,146.826 C178.115556,146.826 178.613333,147.323778 178.613333,147.937111 C178.613333,148.550444 178.115556,149.048222 177.502222,149.048222"/>
    <path fill="#2A7FC3" d="M162.098222,167.395778 L162.098222,147.935778"/>
    <path fill="#FFFFFF" d="M162.098444 168.506667C161.485111 168.506667 160.987333 168.008889 160.987333 167.395556L160.987333 147.937778C160.987333 147.322222 161.485111 146.826667 162.098444 146.826667 162.711778 146.826667 163.209556 147.322222 163.209556 147.937778L163.209556 167.395556C163.209556 168.008889 162.711778 168.506667 162.098444 168.506667M204.259556 107.772444L195.341778 107.772444M204.26 108.883333L195.34 108.883333C194.726667 108.883333 194.228889 108.385556 194.228889 107.772222 194.228889 107.158889 194.726667 106.661111 195.34 106.661111L204.26 106.661111C204.873333 106.661111 205.371111 107.158889 205.371111 107.772222 205.371111 108.385556 204.873333 108.883333 204.26 108.883333"/>
    <path fill="#2A7FC3" d="M195.340889,99.064 L195.340889,107.772889"/>
    <path fill="#FFFFFF" d="M195.340667,108.883333 C194.727333,108.883333 194.229556,108.385556 194.229556,107.772222 L194.229556,99.0655556 C194.229556,98.45 194.727333,97.9544444 195.340667,97.9544444 C195.954,97.9544444 196.451778,98.45 196.451778,99.0655556 L196.451778,107.772222 C196.451778,108.385556 195.954,108.883333 195.340667,108.883333"/>
    <path fill="#0084D4" d="M190.503333,94.8284444 C190.503333,97.5373333 192.67,99.7351111 195.341111,99.7351111 C198.012222,99.7351111 200.178889,97.5373333 200.178889,94.8284444 C200.178889,92.1195556 198.012222,89.9217778 195.341111,89.9217778 C192.67,89.9217778 190.503333,92.1195556 190.503333,94.8284444"/>
    <path fill="#FFFFFF" d="M195.340667,91.0337778 C193.285111,91.0337778 191.614,92.736 191.614,94.8293333 C191.614,96.9204444 193.285111,98.6226667 195.340667,98.6226667 C197.396222,98.6226667 199.067333,96.9204444 199.067333,94.8293333 C199.067333,92.736 197.396222,91.0337778 195.340667,91.0337778 M195.340667,100.844889 C192.060667,100.844889 189.391778,98.1471111 189.391778,94.8293333 C189.391778,91.5093333 192.060667,88.8115556 195.340667,88.8115556 C198.620667,88.8115556 201.289556,91.5093333 201.289556,94.8293333 C201.289556,98.1471111 198.620667,100.844889 195.340667,100.844889"/>
    <path fill="#2A7FC3" d="M218.853778,107.772444 L228.582667,107.772444"/>
    <path fill="#FFFFFF" d="M228.582889,108.883333 L218.854,108.883333 C218.240667,108.883333 217.742889,108.385556 217.742889,107.772222 C217.742889,107.158889 218.240667,106.661111 218.854,106.661111 L228.582889,106.661111 C229.196222,106.661111 229.694,107.158889 229.694,107.772222 C229.694,108.385556 229.196222,108.883333 228.582889,108.883333"/>
    <path fill="#2A7FC3" d="M246.628667,96.7551111 L228.584222,107.772889"/>
    <path fill="#FFFFFF" d="M228.562222,108.883111 C228.195556,108.876444 227.84,108.687556 227.635556,108.352 C227.313333,107.827556 227.48,107.143111 228.004444,106.823111 L246.051111,95.8075556 C246.571111,95.4853333 247.255556,95.652 247.577778,96.1764444 C247.897778,96.6986667 247.731111,97.3831111 247.208889,97.7031111 L229.162222,108.720889 C228.975556,108.834222 228.766667,108.887556 228.562222,108.883111"/>
    <path fill="#0084D4" d="M240.561778,97.0177778 C240.561778,99.7266667 242.728444,101.924444 245.399556,101.924444 C248.070667,101.924444 250.237333,99.7266667 250.237333,97.0177778 C250.237333,94.3088889 248.070667,92.1111111 245.399556,92.1111111 C242.728444,92.1111111 240.561778,94.3088889 240.561778,97.0177778"/>
    <path fill="#FFFFFF" d="M245.399333,93.2235556 C243.343778,93.2235556 241.672667,94.9257778 241.672667,97.0191111 C241.672667,99.1102222 243.343778,100.812444 245.399333,100.812444 C247.454889,100.812444 249.126,99.1102222 249.126,97.0191111 C249.126,94.9257778 247.454889,93.2235556 245.399333,93.2235556 M245.399333,103.034667 C242.119333,103.034667 239.450444,100.336889 239.450444,97.0191111 C239.450444,93.6991111 242.119333,91.0013333 245.399333,91.0013333 C248.679333,91.0013333 251.348222,93.6991111 251.348222,97.0191111 C251.348222,100.336889 248.679333,103.034667 245.399333,103.034667"/>
    <path fill="#2A7FC3" d="M247.748,120.634 L260.403556,120.634"/>
    <path fill="#FFFFFF" d="M260.402444,121.745556 L247.746889,121.745556 C247.242444,121.745556 246.833556,121.247778 246.833556,120.634444 C246.833556,120.021111 247.242444,119.523333 247.746889,119.523333 L260.402444,119.523333 C260.906889,119.523333 261.315778,120.021111 261.315778,120.634444 C261.315778,121.247778 260.906889,121.745556 260.402444,121.745556"/>
    <path fill="#2A7FC3" d="M247.021333,135.558889 L258.372444,135.558889"/>
    <path fill="#FFFFFF" d="M258.372444,136.669778 L247.021333,136.669778 C246.405778,136.669778 245.910222,136.172 245.910222,135.558667 C245.910222,134.945333 246.405778,134.447556 247.021333,134.447556 L258.372444,134.447556 C258.985778,134.447556 259.483556,134.945333 259.483556,135.558667 C259.483556,136.172 258.985778,136.669778 258.372444,136.669778"/>
    <path fill="#2A7FC3" d="M247.192,147.936889 L261.123111,147.936889"/>
    <path fill="#FFFFFF" d="M261.122,149.048222 L247.190889,149.048222 C246.635333,149.048222 246.186444,148.550444 246.186444,147.937111 C246.186444,147.323778 246.635333,146.826 247.190889,146.826 L261.122,146.826 C261.677556,146.826 262.126444,147.323778 262.126444,147.937111 C262.126444,148.550444 261.677556,149.048222 261.122,149.048222"/>
    <path fill="#2A7FC3" d="M261.014889,167.395778 L261.014889,147.935778"/>
    <path fill="#FFFFFF" d="M261.015556,168.506667 C260.402222,168.506667 259.904444,168.008889 259.904444,167.395556 L259.904444,147.937778 C259.904444,147.322222 260.402222,146.826667 261.015556,146.826667 C261.628889,146.826667 262.126667,147.322222 262.126667,147.937778 L262.126667,167.395556 C262.126667,168.008889 261.628889,168.506667 261.015556,168.506667"/>
    <path fill="#2A7FC3" d="M222.096889,178.465556 L233.448,178.465556"/>
    <path fill="#FFFFFF" d="M233.448444,179.576667 L222.097333,179.576667 C221.481778,179.576667 220.986222,179.078889 220.986222,178.465556 C220.986222,177.852222 221.481778,177.354444 222.097333,177.354444 L233.448444,177.354444 C234.061778,177.354444 234.559556,177.852222 234.559556,178.465556 C234.559556,179.078889 234.061778,179.576667 233.448444,179.576667"/>
    <path fill="#2A7FC3" d="M233.448,189.005778 L233.448,178.465778"/>
    <path fill="#FFFFFF" d="M233.448444,190.116889 C232.835111,190.116889 232.337333,189.619111 232.337333,189.005778 L232.337333,178.465778 C232.337333,177.850222 232.835111,177.354667 233.448444,177.354667 C234.061778,177.354667 234.559556,177.850222 234.559556,178.465778 L234.559556,189.005778 C234.559556,189.619111 234.061778,190.116889 233.448444,190.116889"/>
    <path fill="#2A7FC3" d="M201.016222,178.465556 L189.665111,178.465556"/>
    <path fill="#FFFFFF" d="M201.015556,179.576667 L189.666667,179.576667 C189.051111,179.576667 188.555556,179.078889 188.555556,178.465556 C188.555556,177.852222 189.051111,177.354444 189.666667,177.354444 L201.015556,177.354444 C201.628889,177.354444 202.126667,177.852222 202.126667,178.465556 C202.126667,179.078889 201.628889,179.576667 201.015556,179.576667"/>
    <path fill="#2A7FC3" d="M189.665111,189.005778 L189.665111,178.465778"/>
    <path fill="#FFFFFF" d="M189.665778,190.116889 C189.052444,190.116889 188.554667,189.619111 188.554667,189.005778 L188.554667,178.465778 C188.554667,177.850222 189.052444,177.354667 189.665778,177.354667 C190.279111,177.354667 190.776889,177.850222 190.776889,178.465778 L190.776889,189.005778 C190.776889,189.619111 190.279111,190.116889 189.665778,190.116889"/>
    <path fill="#005D9B" d="M188.709111,127.448444 C189.615778,128.657333 192.031333,128.506222 192.031333,128.506222 L233.669111,127.146222 C236.358,127.146222 238.538,130.012889 238.538,132.701778 L238.538,162.846222 C238.538,165.535111 236.358,167.715111 233.669111,167.715111 L189.953556,167.715111 C187.264667,167.715111 185.084667,165.535111 185.084667,162.846222 L184.955778,129.992889 C184.955778,127.052889 186.618,124.924 189.293556,124.644 L227.258,120.684 C229.933556,120.404 232.326889,122.346222 232.606889,125.021778 L232.760222,126.492889"/>
    <path fill="#FFFFFF" d="M189.876222,126.259556 C189.934,126.317333 189.991778,126.379556 190.040667,126.448444 C190.216222,126.679556 191.209556,126.892889 191.927333,126.841778 L230.987333,125.566222 L230.947333,125.195111 C230.858444,124.344 230.445111,123.577333 229.780667,123.039556 C229.118444,122.501778 228.289556,122.257333 227.431778,122.341778 L189.876222,126.259556 Z M187.094,127.859556 C186.785111,128.437333 186.620667,129.157333 186.620667,129.992889 L186.751778,162.839556 C186.751778,164.612889 188.187333,166.048444 189.954,166.048444 L233.669556,166.048444 C235.436222,166.048444 236.871778,164.612889 236.871778,162.846222 L236.871778,132.701778 C236.871778,130.950667 235.394,128.812889 233.669556,128.812889 L192.085111,130.170667 C191.580667,130.208444 188.751778,130.284 187.376222,128.448444 C187.238444,128.268444 187.145111,128.066222 187.094,127.859556 L187.094,127.859556 Z M233.669556,169.381778 L189.954,169.381778 C186.349556,169.381778 183.418444,166.450667 183.418444,162.846222 L183.287333,129.999556 C183.287333,126.166222 185.631778,123.350667 189.118444,122.986222 L227.085111,119.026222 C228.838444,118.844 230.525111,119.350667 231.880667,120.450667 C233.238444,121.550667 234.085111,123.112889 234.265111,124.848444 L234.336222,125.526222 C237.758444,125.968444 240.205111,129.510667 240.205111,132.701778 L240.205111,162.846222 C240.205111,166.450667 237.274,169.381778 233.669556,169.381778 L233.669556,169.381778 Z"/>
    <path fill="#005D9B" d="M362.274667,57.7355556 C362.274667,78.4022222 345.319111,95.1555556 324.401333,95.1555556 C303.485778,95.1555556 286.528,78.4022222 286.528,57.7355556 C286.528,37.0688889 303.485778,20.3155556 324.401333,20.3155556 C345.319111,20.3155556 362.274667,37.0688889 362.274667,57.7355556"/>
    <path fill="#FFFFFF" d="M324.401111,21.9811111 C304.436667,21.9811111 288.194444,38.0211111 288.194444,57.7344444 C288.194444,77.45 304.436667,93.49 324.401111,93.49 C344.365556,93.49 360.607778,77.45 360.607778,57.7344444 C360.607778,38.0211111 344.365556,21.9811111 324.401111,21.9811111 M324.401111,96.8233333 C302.596667,96.8233333 284.861111,79.2877778 284.861111,57.7344444 C284.861111,36.1833333 302.596667,18.6477778 324.401111,18.6477778 C346.205556,18.6477778 363.941111,36.1833333 363.941111,57.7344444 C363.941111,79.2877778 346.205556,96.8233333 324.401111,96.8233333"/>
    <path fill="#FFFFFF" d="M304.457556,42.898 C304.635333,48.5846667 306.462,73.8224444 324.697556,79.4913333 C342.953111,73.8157778 344.768667,48.5824444 344.942,42.898 C334.884222,43.8113333 326.759778,40.1735556 324.697556,39.1491111 C322.637556,40.1735556 314.515333,43.8135556 304.457556,42.898 M324.697556,81.6046667 C324.597556,81.6046667 324.502,81.5913333 324.406444,81.5624444 C315.142,78.818 308.393111,71.0246667 304.886444,59.0246667 C302.275333,50.0802222 302.366444,42.0646667 302.370889,41.7291111 C302.375333,41.4357778 302.504222,41.1557778 302.726444,40.9646667 C302.948667,40.7691111 303.242,40.6802222 303.533111,40.718 C314.844222,42.1224444 323.819778,37.2868889 324.195333,37.0802222 C324.502,36.9135556 324.875333,36.9091111 325.179778,37.0668889 C325.577556,37.2868889 334.553111,42.1291111 345.866444,40.718 C346.157556,40.6802222 346.448667,40.7691111 346.673111,40.9646667 C346.895333,41.1557778 347.024222,41.4357778 347.028667,41.7291111 C347.033111,42.0646667 347.124222,50.0802222 344.510889,59.0246667 C341.006444,71.0246667 334.255333,78.818 324.990889,81.5624444 C324.895333,81.5913333 324.797556,81.6046667 324.697556,81.6046667"/>
    <path fill="#FFFFFF" d="M342.144667 45.6686667C332.900222 46.2197778 324.695778 42.5531111 324.695778 42.5531111 324.662444 42.5708889 316.093556 46.4286667 307.246889 45.7264444 307.246889 45.7264444 309.011333 71.4286667 324.695778 76.4242222L324.695778 76.4242222C340.260222 71.9708889 342.144667 45.6686667 342.144667 45.6686667M98.7482222 133.189333L94.4615556 126.767111C94.3593333 126.642667 94.1304444 126.658222 94.0993333 126.789333L93.3237778 129.816 93.2815556 129.984889C64.0504444 122.596 35.8015556 106.213778 29.3126667 67.5248889 29.2548889 67.1782222 29.5015556 66.8515556 29.8437778 66.7671111L33.4526667 65.8826667 38.8371111 64.5782222C39.2526667 64.4782222 39.2993333 63.7626667 38.9126667 63.4448889L22.266 49.796C21.6326667 49.276 20.8482222 49.4648889 20.5237778 50.216 17.6682222 56.8115556 14.8082222 63.4137778 11.9437778 70.0204444 11.746 70.4804444 12.1148889 71.096 12.5282222 70.996L17.9793333 69.676 21.3971111 68.8382222C21.7837778 68.7426667 22.1704444 68.9915556 22.246 69.3826667 32.7171111 123.558222 81.4771111 132.187111 92.4215556 133.449333L92.346 133.753778 91.6193333 136.702667C91.586 136.836 91.7815556 136.953778 91.9304444 136.891556 92.4482222 136.671556 98.6971111 133.400444 98.6971111 133.400444 98.7837778 133.353778 98.8104444 133.267111 98.7482222 133.189333M100.324222 155.601333C100.317556 155.536889 100.266444 155.503556 100.206444 155.528L95.182 156.696889C95.0864444 156.734667 95.0486667 156.876889 95.122 156.923556L97.0797778 158.232444 97.1531111 158.279111C85.4642222 174.034667 63.8353333 180.819111 54.5486667 182.972444 54.4131111 183.003556 54.2775556 182.932444 54.222 182.805778L53.5842222 181.352444 52.3153333 178.443556C52.2175556 178.219111 51.8108889 178.263556 51.6686667 178.514667L45.5397778 189.379111C45.3508889 189.716889 45.502 190.065778 45.8775556 190.156889 49.9286667 191.128 53.982 192.101333 58.0397778 193.074667 58.3197778 193.143556 58.6308889 192.874667 58.5331111 192.650222L57.2486667 189.705778 56.6375556 188.310222C56.5708889 188.161333 56.6442222 187.988 56.7953333 187.925778 87.4042222 175.748 96.442 164.656889 99.0731111 159.534667 99.0775556 159.523556 99.0664444 159.501333 99.0664444 159.485778L99.202 159.572444 101.135333 160.721333C101.210889 160.768 101.324222 160.670222 101.315333 160.568L100.324222 155.601333zM89.6053333 148.797778L83.5342222 145.897778C83.4075556 145.853333 83.2497778 145.962222 83.2831111 146.073333L84.2364444 148.833333 84.2786667 148.968889C60.8564444 156.202222 34.3142222 156.773333 13.4431111 132.653333 13.2564444 132.437778 13.2897778 132.106667 13.492 131.904444L15.6231111 129.762222 18.812 126.58C19.0564444 126.333333 18.7875556 125.817778 18.3831111 125.76L1.052 123.324444C.392 123.231111-.0702222222 123.693333.0208888889 124.353333.825333333 130.14 1.632 135.933333 2.44088889 141.733333 2.49644444 142.137778 3.012 142.408889 3.25866667 142.162222L6.48533333 138.94 8.50311111 136.913333C8.732 136.684444 9.10533333 136.693333 9.32311111 136.933333 39.5075556 170.122222 77.0142222 155.491111 85.1475556 151.737778L85.2231111 151.98 86.1675556 154.722222C86.2008889 154.831111 86.4031111 154.835556 86.472 154.72 87.4275556 153.146667 88.6897778 150.622222 89.6608889 148.971111 89.7031111 148.9 89.6831111 148.826667 89.6053333 148.797778M319.640444 206.793556L327.471556 210.186889C327.633778 210.229111 327.820444 210.078 327.767111 209.944667L326.264889 206.222444 326.200444 206.060222C354.262667 195.031333 386.764889 191.882444 414.584889 219.540222 414.833778 219.789111 414.822667 220.200222 414.593778 220.466889L412.176 223.289111 408.560444 227.486889C408.282667 227.809111 408.660444 228.418 409.160444 228.451333L430.642667 229.842444C431.460444 229.895778 431.987111 229.284667 431.813778 228.484667 430.291556 221.462444 428.767111 214.429111 427.242667 207.391333 427.138222 206.902444 426.478222 206.615778 426.200444 206.940222L422.540444 211.189111 420.251556 213.860222C419.993778 214.162444 419.531556 214.186889 419.242667 213.913556 379.162667 175.989111 334.511556 197.391333 324.880444 202.744667L324.764889 202.453556 323.280444 198.526889C323.227111 198.393556 322.984889 198.411333 322.900444 198.555778 322.593778 199.086889 319.880444 205.782444 319.556 206.582444 319.516 206.680222 319.540444 206.766889 319.640444 206.793556M309.704889 221.662C309.818222 221.773111 315.120444 226.082 315.120444 226.082 315.218222 226.133111 315.360444 226.064222 315.347111 225.970889L314.891556 222.055333 314.878222 221.968667C334.440444 220.486444 353.731556 232.388667 361.440444 237.997556 361.551556 238.079778 361.589333 238.228667 361.529333 238.353111L360.847111 239.788667 359.480444 242.650889C359.373778 242.870889 359.673778 243.150889 359.956 243.093111L372.180444 240.610889C372.560444 240.533111 372.724889 240.190889 372.547111 239.846444 370.629333 236.150889 368.711556 232.448667 366.789333 228.744222 366.656 228.488667 366.251556 228.428667 366.144889 228.650889L364.760444 231.546444 364.107111 232.924222C364.036 233.070889 363.858222 233.130889 363.713778 233.055333 334.462667 217.897556 320.162667 218.330889 314.569333 219.697556 314.558222 219.699778 314.549333 219.724222 314.538222 219.733111L314.513778 219.575333 314.149333 215.362C314.136 215.268667 313.967111 215.235333 313.902667 215.324222 313.440444 215.948667 310.591556 219.873111 309.711556 221.108667 309.578222 221.295333 309.591556 221.550889 309.704889 221.662M320.703111 191.318444L327.427556 189.920667C327.556444 189.874 327.609778 189.685111 327.512 189.620667L324.812 187.842889 324.692 187.765111C338.165333 167.285111 358.280889 149.958444 389.727556 155.294 390.007556 155.340667 390.194222 155.618444 390.167556 155.902889L389.883111 158.911778 389.449778 163.396222C389.416444 163.740667 389.952 163.967333 390.300889 163.756222L405.223111 154.611778C405.789778 154.262889 405.854222 153.609556 405.365333 153.160667 401.060889 149.207333 396.754222 145.249556 392.440889 141.289556 392.140889 141.014 391.569778 141.131778 391.536444 141.478444L391.096444 146.016222 390.829778 148.865111C390.798667 149.187333 390.503111 149.418444 390.183111 149.371778 345.780889 142.965111 326.149778 178.111778 322.260889 186.182889L322.047556 186.042889 319.092 183.947333C318.994222 183.885111 318.827556 184.011778 318.854222 184.145111 319.045333 185.182889 320.547556 191.218444 320.547556 191.218444 320.554222 191.302889 320.623111 191.347333 320.703111 191.318444"/>
  </g>
</svg>
